<svg width="27px" height="8px" viewBox="0 0 27 8" xmlns="http://www.w3.org/2000/svg">
  <g transform="translate(-364.000000, -363.000000)" fill="#FFA7A5">
    <g transform="translate(120.000000, 266.000000)">
      <path d="M270.753578,101.783741 C269.426957,100.352994 268.432813,98.7021303 267.166253,97.2399494 C266.773257,96.7863051 265.905105,97.0032647 265.961968,97.6605517 C266.013288,98.255484 266.165524,98.8380787 266.378555,99.4047674 C258.978579,97.3535302 249.725329,98.8351543 244.11847,104.03066 C243.765385,104.357728 244.279684,104.753513 244.640791,104.574103 C251.507124,101.163596 258.522215,99.948258 265.737722,101.96041 C265.149305,102.207812 264.581282,102.515696 264.047339,102.903012 C262.807373,103.801893 264.14998,105.661992 265.390898,104.758879 C266.616403,103.866708 268.010711,103.422532 269.544191,103.552909 C270.448689,103.629616 271.482511,102.570365 270.753578,101.783741"/>
    </g>
  </g>
</svg>
