<svg width="21px" height="21px" viewBox="0 0 21 21" xmlns="http://www.w3.org/2000/svg">
  <g transform="translate(-368.000000, -386.000000)" fill="#FFA7A5">
    <g transform="translate(48.000000, 200.000000)">
      <g transform="translate(184.000000, 68.000000)">
        <path d="M155.418855,119.343391 C155.662135,121.279309 156.287747,123.102021 156.593714,125.012134 C156.688612,125.604784 155.964374,126.130368 155.497414,125.664312 C155.074657,125.242584 154.726219,124.75148 154.429045,124.224028 C151.24377,131.211248 144.160906,137.34728 136.576898,138.302777 C136.099391,138.363019 136.126787,137.714638 136.496338,137.553337 C143.522532,134.485651 148.962748,129.892985 152.059389,123.072199 C151.491641,123.363926 150.89067,123.601152 150.250756,123.761215 C148.765139,124.133294 148.203232,121.909149 149.692703,121.53906 C151.163885,121.173746 152.400387,120.391155 153.286215,119.132636 C153.808854,118.390444 155.284815,118.279364 155.418855,119.343391"/>
      </g>
    </g>
  </g>
</svg>
