<svg width="21px" height="21px" viewBox="0 0 21 21" xmlns="http://www.w3.org/2000/svg">
  <g transform="translate(-156.000000, -394.000000)" fill="#FFA7A5">
    <g transform="translate(60.000000, 187.000000)">
      <g transform="translate(93.000000, 57.000000)">
        <path d="M4.58114515,169.569359 C4.33786463,167.633442 3.71225268,165.810729 3.40628616,163.900616 C3.31138804,163.307966 4.03562571,162.782382 4.50258572,163.248438 C4.92534265,163.670167 5.27378067,164.161271 5.57095548,164.688723 C8.75622979,157.701502 15.8390944,151.565471 23.4231019,150.609974 C23.9006093,150.549731 23.8732131,151.198112 23.5036616,151.359414 C16.4774685,154.427099 11.0372517,159.019766 7.9406109,165.840552 C8.50835933,165.548825 9.10933016,165.311598 9.74924356,165.151535 C11.234861,164.779456 11.7967679,167.003602 10.3072969,167.37369 C8.83611514,167.739005 7.59961256,168.521596 6.71378498,169.780114 C6.19114611,170.522306 4.71518486,170.633386 4.58114515,169.569359"/>
      </g>
    </g>
  </g>
</svg>
