<?xml version="1.0" encoding="UTF-8"?>
<svg width="69px" height="44px" viewBox="0 0 69 44" version="1.1" xmlns="http://www.w3.org/2000/svg" xmlns:xlink="http://www.w3.org/1999/xlink">
    <!-- Generator: Sketch 63.1 (92452) - https://sketch.com -->
    <title>Combined Shape</title>
    <desc>Created with Sketch.</desc>
    <g id="Page-1" stroke="none" stroke-width="1" fill="none" fill-rule="evenodd">
        <g id="1-1920" transform="translate(-301.000000, -442.000000)" fill="#1E1E1E" fill-rule="nonzero">
            <g id="1st-block">
                <g id="Text" transform="translate(121.000000, 308.000000)">
                    <g id="Bow" transform="translate(180.000000, 134.000000)">
                        <path d="M36,0 C36.5128358,0 36.9355072,0.38604019 36.9932723,0.883378875 L37,1 L37.000914,13.9355722 C37.2508141,13.4783531 37.5324315,13.0314473 37.8509334,12.5861091 C39.2569229,10.6202153 40.5094435,9.29572782 41.9556152,8.53278992 C44.0102096,7.44887444 46.1334938,7.78383805 48.0875582,9.74310887 C50.0430522,11.7038359 50.3635281,13.818926 49.2576515,15.8576633 C48.4865005,17.2793178 47.1899575,18.4846828 45.1840873,19.919263 C44.6014354,20.3359704 44.0100869,20.6932849 43.396527,21.0007994 L68,21 C68.5522847,21 69,21.4477153 69,22 C69,22.5128358 68.6139598,22.9355072 68.1166211,22.9932723 L68,23 L44.0318103,22.9996175 C44.3921312,23.2109821 44.7464324,23.4417423 45.0976873,23.6940176 C47.0987072,25.1311736 48.393565,26.3360571 49.1677014,27.7518121 C50.2793041,29.784732 49.9730718,31.8902244 48.0358408,33.8327045 C46.1000263,35.7737414 43.9864245,36.0943637 41.9377743,35.004431 C40.497715,34.2382838 39.2458675,32.9154212 37.837383,30.9543219 C37.5245621,30.5187667 37.2469319,30.081891 36.9996083,29.6354832 L37,43 C37,43.5522847 36.5522847,44 36,44 C35.4871642,44 35.0644928,43.6139598 35.0067277,43.1166211 L35,43 L35.000957,29.4279061 C34.7261046,29.9468945 34.4118655,30.4514882 34.0507244,30.9543219 C32.6422398,32.9154212 31.3903924,34.2382838 29.9503331,35.004431 C27.9016828,36.0943637 25.7880811,35.7737414 23.8522666,33.8327045 C21.9150356,31.8902244 21.6088033,29.784732 22.720406,27.7518121 C23.4945423,26.3360571 24.7894002,25.1311736 26.7904201,23.6940176 C27.141675,23.4417423 27.4959761,23.2109821 27.856297,22.9996175 L1,23 C0.44771525,23 0,22.5522847 0,22 C0,21.4871642 0.38604019,21.0644928 0.883378875,21.0067277 L1,21 L28.6356838,21.0001222 C28.0017329,20.683765 27.3916145,20.3150077 26.7904201,19.8832227 C24.7894002,18.4460667 23.4945423,17.2411833 22.720406,15.8254283 C21.6088033,13.7925084 21.9150356,11.687016 23.8522666,9.7445359 C25.7880811,7.80349901 27.9016828,7.48287668 29.9503331,8.5728094 C31.3903924,9.33895661 32.6422398,10.6618192 34.0507244,12.6229185 C34.4118655,13.1257522 34.7261046,13.6303458 35.000957,14.1493343 L35,1 C35,0.44771525 35.4477153,0 36,0 Z M34.733,23 L34.365,23 L34.2101332,23.0222131 C31.6189053,23.4071367 29.7142664,24.0564563 27.9571156,25.3184627 C26.1857428,26.5906834 25.0640588,27.6344261 24.4752029,28.7113369 C23.7901616,29.9641533 23.956014,31.1044677 25.2683889,32.4204005 C26.5833652,33.7389224 27.740832,33.9145041 29.0109559,33.2387667 C30.1059105,32.6562237 31.1849962,31.5159234 32.4262793,29.7876264 L32.6104701,29.5236344 C33.7400042,27.8559 34.3057198,26.0713946 34.667683,23.5067797 L34.733,23 Z M37.522,23 L37.154,23 L37.2204243,23.5067797 C37.5622785,25.928916 38.0858747,27.6552139 39.0945404,29.2444837 L39.2776372,29.5236344 L39.461828,29.7876264 C40.7031112,31.5159234 41.7821968,32.6562237 42.8771514,33.2387667 C44.1472754,33.9145041 45.3047421,33.7389224 46.6197184,32.4204005 C47.9320933,31.1044677 48.0979458,29.9641533 47.4129044,28.7113369 C46.8240485,27.6344261 45.7023646,26.5906834 43.9309918,25.3184627 C42.0762214,23.9863448 40.0571203,23.3368811 37.2396531,22.9604476 L37.522,23 Z M42.8888269,10.3017207 C41.7925702,10.8800584 40.7149841,12.0195602 39.4777035,13.7495604 L39.3013095,14.0032455 C38.164567,15.6859783 37.6051265,17.4910559 37.2566949,20.0989674 L37.1907893,20.6363213 L37.3045647,20.6221429 C40.1368242,20.2610372 42.163997,19.6203444 44.020636,18.2924929 C45.7938025,17.0243402 46.9148507,15.9821285 47.4996315,14.9040568 C48.1810921,13.6477509 48.0062464,12.4937973 46.6714594,11.1554364 C45.3340433,9.81445873 44.1627136,9.62967291 42.8888269,10.3017207 Z M29.0109559,10.3384737 C27.740832,9.66273631 26.5833652,9.83831796 25.2683889,11.1568399 C23.956014,12.4727726 23.7901616,13.6130871 24.4752029,14.8659035 C25.0640588,15.9428143 26.1857428,16.986557 27.9571156,18.2587777 C29.8118859,19.5908956 31.8309871,20.2403593 34.6484543,20.6167928 L34.6484543,20.6167928 L34.7406651,20.6291481 L34.667683,20.0704606 C34.3057198,17.5058458 33.7400042,15.7213403 32.6104701,14.053606 L32.6104701,14.053606 L32.4262793,13.7896139 C31.1849962,12.061317 30.1059105,10.9210167 29.0109559,10.3384737 Z" id="Combined-Shape"></path>
                    </g>
                </g>
            </g>
        </g>
    </g>
</svg>