<svg width="360" height="1440" xmlns="http://www.w3.org/2000/svg"><path d="M0 252.268c70 6.5 155 113.5 198.5 228 24.333 2.667 53.167 43 86.5 121-23.992 48.226-70.655 82.3-139.989 102.221-104 29.883-274.511-43.221-269.511-54.221 3.333-7.333 18.167-95 44.5-263 6.667-93.667 33.333-138.333 80-134z" fill="#02C8F0"/><path d="M377 634.268c-41-32-62.5-49.333-64.5-52-3-4-80.5-102.5-85-106.5-3-2.667-14.667-15.667-35-39l10-176.5c18.667-48 31.667-72 39-72 11 0 95 9.5 103.5 6.5s30 2.5 54 10 47.5 34 47.5 55.5-16.5 261-24.5 280.5c-5.333 13-20.333 44.167-45 93.5z" fill="#FBEFE1"/><path d="M212 451.768c53 8 116 56 150 150 11.852 32.767 97.791 297.437 17.685 315.78l-1.8.407c-4.555 1.017-10.592 2.279-17.875 3.715L360 1440H0l-.011-493.882A95.282 95.282 0 01-6 944.09c-86.715-32.764-5.32-236.252-21-241.11-14.756-4.572 125.737-28.98 183.5-65.212 34.643-21.73 126.5-86.5 55.5-186z" fill="#1D528A"/><path d="M0 252.268c74.5 17 148 111 192.5 217 29.667 70.667 24.833 43-14.5-83l24-226.5 175-166c-1.667-13.333-3.667-20-6-20H-50.5c-16 174.333.833 267.167 50.5 278.5z" fill="#00E0B4"/><path d="M204.5 484.268c-19.5-43-32-72-38.5-149s-1-253 194-348 72.631 104.57 50 159c-28-43-153 49-187 170.5-22.667 81-22.667 140.833 0 179.5" fill="#F7CDBB"/><path fill="#4740E3" d="M150.81 19.255l-17.323 17.324 23.688 6.717zm33.128 16.553l23.55 6.753-17.46 17.36zm-33 34l23.55 6.753-17.46 17.36z"/><circle fill="#4740E3" cx="295.5" cy="90.768" r="24.5"/><circle fill="#F8FAFB" cx="87.5" cy="194.768" r="24.5"/><circle fill="#02C8F0" cx="367.5" cy="406.768" r="24.5"/><circle fill="#4740E3" cx="-9.5" cy="346.768" r="94.5"/><circle fill="#F7CDBB" cx="-9.5" cy="346.768" r="70.5"/><path fill="#FFA1C6" d="M328.03 501.268l16.97-16.97 16.97 16.97-16.97 16.97z"/><circle fill="#4740E3" cx="-6" cy="59.768" r="76"/><path d="M-61.5 59.768c0 30.652 24.848 55.5 55.5 55.5s55.5-24.848 55.5-55.5" fill="#FFF"/><circle fill="#4740E3" cx="367.5" cy="240.768" r="94.5"/><circle fill="#02C8F0" cx="367.5" cy="240.768" r="70.5"/><circle fill="#4740E3" cx="367.5" cy="240.768" r="28.5"/><path d="M276.916 465.109l-7.263 5.403a77 77 0 00-30.789 55.545l-.733 9.022-5.403-7.263a77 77 0 00-55.545-30.79l-9.022-.732 7.263-5.403a77 77 0 0030.79-55.545l.732-9.022 5.403 7.263a77 77 0 0055.545 30.789l9.022.733z" fill="#FFF"/></svg>