<?xml version="1.0" encoding="UTF-8"?>
<svg width="60px" height="51px" viewBox="0 0 60 51" version="1.1" xmlns="http://www.w3.org/2000/svg" xmlns:xlink="http://www.w3.org/1999/xlink">
    <!-- Generator: Sketch 63.1 (92452) - https://sketch.com -->
    <title>1</title>
    <desc>Created with Sketch.</desc>
    <g id="Symbols" stroke="none" stroke-width="1" fill="none" fill-rule="evenodd">
        <g id="1" transform="translate(0.000000, -1.000000)" fill-rule="nonzero">
            <g transform="translate(0.477424, 1.128519)">
                <path d="M50.9607413,3.32058015 L50.9941152,3.52207395 L52.448,13.871 L54.5225764,13.8714809 C57.2840001,13.8714809 59.5225764,16.1100572 59.5225764,18.8714809 L59.5225764,45.8714809 C59.5225764,48.6329047 57.2840001,50.8714809 54.5225764,50.8714809 L28.5225764,50.8714809 L28.5225764,48.8714809 L54.5225764,48.8714809 C56.1794306,48.8714809 57.5225764,47.5283352 57.5225764,45.8714809 L57.5225764,18.8714809 C57.5225764,17.2146267 56.1794306,15.8714809 54.5225764,15.8714809 L12.5225764,15.8714809 C10.8657221,15.8714809 9.52257635,17.2146267 9.52257635,18.8714809 L9.52257635,45.8714809 C9.52257635,47.5283352 10.8657221,48.8714809 12.5225764,48.8714809 L20.5225764,48.8714809 L20.5225764,50.8714809 L12.5225764,50.8714809 C9.7611526,50.8714809 7.52257635,48.6329047 7.52257635,45.8714809 L7.52238749,41.7293712 C5.76783622,41.5406712 4.28764669,40.2247076 3.94523831,38.4321136 L3.91186444,38.2306198 L0.0403218097,10.6831626 C-0.264589984,8.51360246 1.19196047,6.50268891 3.32058015,6.09609532 L3.52207395,6.06272145 L46.373674,0.0403218097 C48.5432342,-0.264589984 50.5541477,1.19196047 50.9607413,3.32058015 Z M46.8006218,2.00527485 L46.6520202,2.02085795 L3.80042015,8.04325759 C2.70660025,8.19698395 1.93008109,9.17103264 2.00527485,10.2562148 L2.02085795,10.4048164 L5.89240057,37.9522736 C6.01784168,38.8448335 6.68950281,39.5261154 7.52205065,39.7057499 L7.52257635,18.8714809 C7.52257635,16.1100572 9.7611526,13.8714809 12.5225764,13.8714809 L50.429,13.871 L49.013579,3.80042015 C48.8598527,2.70660025 47.885804,1.93008109 46.8006218,2.00527485 Z" id="Shape" fill="#8E8E8E"></path>
                <path d="M41.0654696,26.1643741 C41.4559939,25.7738498 42.0891588,25.7738498 42.4796831,26.1643741 C42.8401671,26.5248581 42.8678966,27.0920891 42.5628717,27.4843803 L42.4796831,27.5785877 L30.5225764,39.5356945 L24.8154696,33.8285877 C24.4249453,33.4380634 24.4249453,32.8048984 24.8154696,32.4143741 C25.1759535,32.0538902 25.7431846,32.0261606 26.1354758,32.3311855 L26.2296831,32.4143741 L30.5225764,36.7064809 L41.0654696,26.1643741 Z" id="Path-3" fill="#1E1E1E"></path>
            </g>
        </g>
    </g>
</svg>