<svg width="60" height="51" xmlns="http://www.w3.org/2000/svg"><g fill="none"><path d="M51.438 3.45l.034.2L52.925 14H55a5 5 0 015 5v27a5 5 0 01-5 5H29v-2h26a3 3 0 003-3V19a3 3 0 00-3-3H13a3 3 0 00-3 3v27a3 3 0 003 3h8v2h-8a5 5 0 01-5-5v-4.142a4.093 4.093 0 01-3.577-3.297l-.034-.202L.518 10.812a4.091 4.091 0 013.28-4.587l.201-.034L46.851.17a4.091 4.091 0 014.587 3.28zm-4.16-1.316l-.149.015L4.278 8.172a2.091 2.091 0 00-1.795 2.213l.015.148L6.37 38.081A2.092 2.092 0 008 39.834V19a5 5 0 015-5h37.906L49.491 3.929a2.091 2.091 0 00-2.213-1.795z" fill="#8E8E8E"/><path d="M41.543 26.293a1 1 0 011.497 1.32l-.083.094L31 39.664l-5.707-5.707a1 1 0 011.32-1.497l.094.083L31 36.835l10.543-10.542z" fill="#1E1E1E"/></g></svg>