<svg width="119" height="52" xmlns="http://www.w3.org/2000/svg"><g fill="none"><path d="M118.383 21.268l.115.981c.531 4.53-2.13 7.675-5.258 8.513l-.087.022v.028c-.104 2.633-1.838 4.455-4.06 5.066l-.097.025c-.13 1.938-1.39 3.144-3.357 3.744l-.23.067c-.646.176-1.187.265-2.06.362L92.9 41.152a1 1 0 01-.204-1.99l10.142-1.042.523-.058c.637-.076 1.056-.15 1.521-.277 1.145-.314 1.823-.793 2.045-1.595l-8.104.851a1 1 0 01-.325-1.97l.116-.019 9.263-.973c1.66-.175 3.02-1.262 3.247-3.013l-8.157.857a1 1 0 01-.324-1.97l.115-.02 9.263-.973c2.275-.239 4.475-2.242 4.543-5.432v-.058L97.64 25.459c-3.294.346-5.154 2.126-4.95 5.049l.02.233c.228 2.165-.729 3.777-2.46 4.798-1.097.647-2.375.99-3.487 1.107a1 1 0 01-.21-1.989c.853-.09 1.87-.362 2.682-.84 1.096-.648 1.626-1.54 1.486-2.867-.439-4.177 2.201-6.905 6.443-7.449l.267-.031 20.953-2.202zM52.058 29.87c.844 1.623 2.26 2.603 4.334 2.97 2.076.365 3.741-.072 5.089-1.308a.975.975 0 011.409.08 1.058 1.058 0 01-.094 1.457c-1.824 1.673-4.11 2.273-6.762 1.805-2.654-.468-4.595-1.813-5.738-4.01a1.058 1.058 0 01.41-1.401.975.975 0 011.352.407zM1.254.96l19.248 8.57.244.112c3.785 1.79 5.463 5.097 3.928 8.836l-.18.425c-.686 1.786.348 3.238 2.346 4.351a1 1 0 11-.973 1.748c-2.788-1.553-4.421-3.882-3.218-6.873l.187-.441c1.068-2.643-.058-4.86-2.906-6.22l-.242-.111-17.383-7.74-.018.056c-.895 2.97.473 5.496 2.47 6.489l.172.08 8.508 3.79.104.053a1 1 0 01-.808 1.815l-.11-.042-7.492-3.335-.031.199c-.21 1.578.647 2.902 2.008 3.584l.18.085 8.51 3.789.103.053a1 1 0 01-.808 1.815l-.109-.041-7.444-3.314c-.037.83.46 1.497 1.452 2.148.216.142.424.266.66.39l.247.127.454.217.479.217 9.324 4.126a1 1 0 01-.7 1.87l-.109-.04-9.607-4.254c-.7-.316-1.16-.549-1.64-.848l-.207-.133-.198-.135c-1.618-1.13-2.443-2.592-2.086-4.373l.051-.224-.085-.055c-1.86-1.225-2.937-3.386-2.36-5.819l.065-.253.008-.027-.076-.048C.556 9.855-.995 6.168.722 2.128l.12-.27.412-.898zM68.79 23.923c.814.143 1.353.943 1.204 1.786-.148.843-.929 1.41-1.742 1.266-.814-.143-1.354-.943-1.205-1.786.149-.843.929-1.41 1.743-1.266zm-20.744-3.33c.813.144 1.353.943 1.204 1.786-.149.843-.929 1.41-1.743 1.267-.814-.144-1.353-.943-1.204-1.786.148-.843.929-1.41 1.743-1.267z" fill="#000"/><path d="M90.223 14.033l-5.244 33.11a5.098 5.098 0 01-5.833 4.237l-50.358-7.975a5.098 5.098 0 01-4.238-5.833l5.244-33.11A5.098 5.098 0 0135.627.224L85.985 8.2a5.098 5.098 0 014.238 5.833zm-7.22 32.797l5.245-33.11a3.098 3.098 0 00-2.576-3.544L35.314 2.2a3.098 3.098 0 00-3.545 2.575l-5.244 33.11a3.098 3.098 0 002.576 3.544l50.358 7.976a3.098 3.098 0 003.545-2.575z" fill="#8E8E8E"/></g></svg>