<svg width="66" height="47" xmlns="http://www.w3.org/2000/svg"><g fill="none"><path d="M60 0a6 6 0 016 6v35a6 6 0 01-6 6H6a6 6 0 01-6-6V6a6 6 0 016-6h54zm0 2H6a4 4 0 00-3.995 3.8L2 6v35a4 4 0 003.8 3.995L6 45h54a4 4 0 003.995-3.8L64 41V6a4 4 0 00-3.8-3.995L60 2z" fill="#8E8E8E"/><path d="M46.001 5a1 1 0 01.992.884l.007.117-.009 7.277.108-.168.292-.42c1.618-2.264 4.117-4.866 7.19-1.785 2.957 2.964.621 5.338-1.579 6.952l-.2.143H60a1 1 0 01.117 1.993L60 20h-9.04a9.187 9.187 0 011.53.855l.383.272c2.236 1.614 4.723 4.024 1.708 7.046-3.189 3.197-5.76.275-7.37-2.04a8.321 8.321 0 01-.234-.355L46.967 36a1 1 0 01-1.993.115l-.006-.117.01-10.464a8.407 8.407 0 01-.38.599l-.179.254c-1.618 2.264-4.117 4.866-7.19 1.785-2.9-2.906-.71-5.245 1.45-6.856l.258-.19.384-.272A9.187 9.187 0 0140.849 20H7a1 1 0 01-.117-1.993L7 18h32.007l-.328-.239c-2.16-1.61-4.35-3.95-1.45-6.856 3.19-3.197 5.76-.275 7.37 2.039.141.203.272.411.393.622L45 5.999A1 1 0 0146.001 5zm-1.668 16.083l-.312.05c-1.436.249-2.555.666-3.558 1.364-1.32.919-2.127 1.665-2.473 2.337-.301.585-.212 1.058.655 1.927.872.873 1.366.97 1.968.67.639-.32 1.35-1.05 2.167-2.19l.177-.25.134-.198c.598-.924.957-1.944 1.18-3.286l.062-.424zm3.456.05l-.312-.05.01.081c.217 1.514.584 2.628 1.233 3.629l.133.198c.892 1.283 1.66 2.098 2.344 2.44.602.3 1.097.203 1.968-.67.867-.87.956-1.342.656-1.927-.347-.672-1.154-1.418-2.474-2.337-1.002-.698-2.121-1.115-3.558-1.364zm-8.994-8.962l-.15.146c-.867.869-.956 1.342-.655 1.926.346.673 1.153 1.419 2.473 2.338 1.003.697 2.122 1.115 3.558 1.364l.312.05-.01-.081c-.217-1.514-.584-2.628-1.232-3.629l-.134-.199c-.892-1.282-1.66-2.097-2.344-2.439-.566-.282-1.038-.214-1.818.524zm14.37.146c-.871-.874-1.366-.97-1.968-.67-.639.32-1.35 1.05-2.167 2.19l-.177.25-.133.198c-.6.924-.958 1.944-1.18 3.286l-.063.424.312-.05c1.437-.25 2.556-.667 3.558-1.364 1.32-.919 2.127-1.665 2.474-2.338.3-.584.21-1.057-.656-1.926z" fill="#000"/></g></svg>