<svg width="27px" height="8px" viewBox="0 0 27 8" xmlns="http://www.w3.org/2000/svg">
  <g transform="translate(-762.000000, -363.000000)" fill="#FFA7A5">
    <g transform="translate(120.000000, 266.000000)">
      <path d="M668.753578,100.216259 C667.426957,101.647006 666.432813,103.29787 665.166253,104.760051 C664.773257,105.213695 663.905105,104.996735 663.961968,104.339448 C664.013288,103.744516 664.165524,103.161921 664.378555,102.595233 C656.978579,104.64647 647.725329,103.164846 642.11847,97.9693405 C641.765385,97.6422719 642.279684,97.2464872 642.640791,97.4258974 C649.507124,100.836404 656.522215,102.051742 663.737722,100.03959 C663.149305,99.7921879 662.581282,99.4843039 662.047339,99.0969881 C660.807373,98.198107 662.14998,96.3380081 663.390898,97.2411208 C664.616403,98.1332918 666.010711,98.577468 667.544191,98.4470911 C668.448689,98.3703838 669.482511,99.4296349 668.753578,100.216259"/>
    </g>
  </g>
</svg>
