<svg width="21px" height="21px" viewBox="0 0 21 21" xmlns="http://www.w3.org/2000/svg">
  <g transform="translate(-232.000000, -272.000000)" fill="#FFA7A5">
    <g transform="translate(48.000000, 200.000000)">
      <g transform="translate(183.000000, 68.000000)">
        <path d="M20.4188549,23.6566087 C20.6621354,21.7206914 21.2877473,19.8979787 21.5937138,17.9878658 C21.688612,17.3952157 20.9643743,16.8696321 20.4974143,17.3356879 C20.0746574,17.7574162 19.7262193,18.2485203 19.4290445,18.7759723 C16.2437702,11.7887516 9.1609056,5.65272015 1.57689814,4.69722333 C1.09939068,4.63698056 1.1267869,5.28536166 1.49633841,5.44666327 C8.52253152,8.51434854 13.9627483,13.1070154 17.0593891,19.9278012 C16.4916407,19.6360741 15.8906698,19.3988475 15.2507564,19.2387849 C13.765139,18.8667057 13.2032321,21.0908512 14.6927031,21.4609398 C16.1638849,21.8262542 17.4003874,22.6088451 18.286215,23.8673637 C18.8088539,24.6095558 20.2848151,24.7206358 20.4188549,23.6566087"/>
      </g>
    </g>
  </g>
</svg>
