<svg width="1560" height="575" xmlns="http://www.w3.org/2000/svg"><path d="M807.466-161.043c13.992-1.318 27.839 2.032 39.067 9.467l1.39.919 1.266-1.104a45.042 45.042 0 013.112-2.514c6.827-4.98 14.974-8.087 23.561-8.99l.614-.06c11.667-1.079 23.474 2.035 32.498 8.592l.58.422.758-.024.627-.017c10.246-.206 20.26 2.756 28.26 8.372l1.076.757 1.207-.63c5.459-2.842 11.377-4.615 17.594-5.268 15.295-1.608 30.085 3.795 39.668 14.474l.89.992c.679.742 1.695 1.84 1.931 2.1l.833.93a87.496 87.496 0 012.523 2.991l.741.928.62.793c3.232 4.172 6.952 9.554 11.415 16.65l.692 1.103-.32.041c15.906-2.1 29.768 2.463 40.336 12.219 9.256 8.544 15.336 20.647 16.775 32.52 2.026 16.72-.6 31.564-7.08 44.385-5.333 10.554-13.099 19.337-22.041 25.858-6.83 4.98-14.989 8.09-23.598 8.994l-.686.068-.683.057-2.128.166.228 1.877c1.778 14.356-4.616 28.366-17.09 37.468-6.824 4.975-14.962 8.08-23.538 8.982l-.63.062c-9.875.91-19.867-1.157-28.21-5.85l-2.027-1.143-.961 2.005c-2.997 6.236-7.685 11.793-13.554 16.068-6.82 4.98-14.965 8.09-23.55 8.992l-.612.06c-12.443 1.153-24.837-2.407-34.095-9.817l-.837-.673-1.102.303a49.97 49.97 0 01-8.001 1.505c-15.5 1.629-30.478-3.927-40.057-14.869l-.538-.676-1.402-1.755-1.504.594a49.603 49.603 0 01-12.962 3.154c-15.489 1.628-30.455-3.923-40.03-14.858l-.369-.429c-7.813-9.182-10.884-21.076-8.42-32.713l.311-1.464-1.556-.517C745.92 6.284 734.948-.88 726.73-10.262c-25.31-28.906-19.583-71.622 12.742-95.197l.751-.54c4.292-3.043 9.12-5.73 14.374-7.998l1.017-.438.151-.99c2.035-13.513 9.628-25.674 21.372-34.239 8.59-6.264 18.839-10.175 29.641-11.31l.689-.07zm-.584 1.063c-10.628 1.117-20.71 4.964-29.157 11.124-11.532 8.41-18.978 20.336-20.972 33.582l-.237 1.54-1.524.656c-5.495 2.372-10.517 5.206-14.932 8.427-31.859 23.235-37.494 65.274-12.579 93.73 8.1 9.247 18.921 16.312 31.293 20.426l2.403.8-.496 2.337c-2.437 11.51.685 23.273 8.564 32.276 9.356 10.685 24 16.118 39.172 14.523 4.38-.46 8.654-1.5 12.701-3.091l2.19-.863 1.865 2.332.523.66c9.345 10.672 24 16.109 39.184 14.513a48.97 48.97 0 007.841-1.474l1.593-.438 1.236.992c9.201 7.364 21.588 10.844 33.978 9.542 8.41-.884 16.387-3.929 23.065-8.805 5.738-4.18 10.317-9.608 13.241-15.693l1.423-2.967 2.958 1.667c8.338 4.69 18.37 6.702 28.244 5.664 8.403-.883 16.373-3.924 23.053-8.795 12.187-8.892 18.42-22.55 16.687-36.538l-.355-2.913 3.17-.249c.445-.034.893-.075 1.343-.122 8.435-.887 16.425-3.932 23.113-8.808 8.819-6.431 16.479-15.095 21.737-25.5 6.39-12.646 8.982-27.29 6.98-43.814-1.41-11.64-7.38-23.525-16.46-31.906-10.215-9.43-23.559-13.903-38.905-12.042l-.942.122-1.016-1.624-.877-1.388c-4.482-7.055-8.19-12.325-11.404-16.36a87.474 87.474 0 00-3.345-3.968l-.568-.627-1.883-2.048-.455-.505c-9.353-10.682-23.991-16.115-39.152-14.522-6.092.64-11.89 2.377-17.236 5.162l-1.748.91-1.572-1.107c-7.982-5.604-18.03-8.51-28.28-8.174l-1.101.036-.858-.624c-8.978-6.525-20.795-9.568-32.418-8.346-8.413.884-16.393 3.928-23.076 8.803a41.828 41.828 0 00-2.587 2.063l-2.297 2-2.026-1.338c-11.216-7.427-25.102-10.71-39.1-9.238zM210.675-54.271c8.668-.786 17.24 1.3 24.197 5.901l.742.49.675-.59a28.187 28.187 0 011.942-1.566c4.258-3.103 9.34-5.04 14.694-5.603l.505-.048c7.237-.64 14.55 1.3 20.147 5.363l.308.223.404-.013.543-.013c6.337-.097 12.523 1.746 17.474 5.217l.573.403.646-.337a30.584 30.584 0 0110.972-3.283c9.491-.998 18.673 2.33 24.655 8.92l.558.622 1.233 1.34.046.05a53.95 53.95 0 012.01 2.34l.597.747.517.665c1.92 2.497 4.114 5.675 6.72 9.8l.537.855-.32.04c9.914-1.309 18.562 1.533 25.152 7.61 5.769 5.319 9.557 12.853 10.453 20.248 2.333 19.245-5.29 34.31-18.13 43.663-4.26 3.103-9.349 5.04-14.717 5.605l-.641.06-1.334.105.117.965c1.11 8.956-2.885 17.697-10.671 23.373-4.256 3.1-9.332 5.035-14.68 5.597l-.555.053c-6.105.53-12.273-.759-17.431-3.657l-1.08-.608-.508 1.058c-1.872 3.89-4.798 7.354-8.461 10.02-4.255 3.103-9.334 5.04-14.688 5.603l-.503.049c-7.719.685-15.398-1.533-21.145-6.127l-.443-.356-.59.162c-1.62.445-3.297.76-4.989.938-9.666 1.016-19.01-2.445-24.987-9.265l-1.12-1.402-.801.316a30.965 30.965 0 01-8.084 1.966c-9.66 1.015-18.995-2.443-24.97-9.26l-.293-.34c-4.834-5.718-6.729-13.109-5.195-20.34l.157-.74-.802-.266c-7.802-2.59-14.63-7.043-19.746-12.877-15.759-17.979-12.19-44.551 7.935-59.213l.603-.432c2.637-1.852 5.595-3.49 8.808-4.875l.533-.23.078-.508c1.27-8.417 6.005-15.991 13.324-21.323 5.352-3.899 11.736-6.333 18.464-7.04l.565-.055zm-.46 1.05c-6.555.689-12.772 3.059-17.98 6.853-6.968 5.076-11.514 12.23-12.848 20.187l-.239 1.536-1.041.448c-3.393 1.464-6.494 3.212-9.218 5.197-19.658 14.322-23.136 40.217-7.772 57.746 4.997 5.698 11.673 10.051 19.31 12.587l1.65.549-.343 1.613c-1.498 7.066.419 14.287 5.262 19.815 5.756 6.566 14.77 9.906 24.113 8.924a29.965 29.965 0 007.823-1.903l1.487-.585 1.243 1.553.325.408c5.743 6.552 14.765 9.894 24.115 8.911a30.195 30.195 0 004.829-.907l1.08-.297.842.675c5.662 4.526 13.289 6.665 20.919 5.863 5.18-.544 10.091-2.417 14.203-5.417 3.531-2.57 6.35-5.906 8.148-9.644l.97-2.02 2.01 1.131c5.132 2.883 11.31 4.12 17.391 3.481 5.174-.543 10.083-2.415 14.196-5.41 7.498-5.467 11.332-13.854 10.268-22.443l-.245-2.002 2.163-.17c.275-.02.55-.046.827-.075 5.195-.546 10.116-2.42 14.233-5.419 12.563-9.15 20.012-23.873 17.726-42.734-.868-7.161-4.546-14.477-10.138-19.633-6.375-5.878-14.727-8.623-24.343-7.354l-.32.042-.859-1.371c-2.944-4.663-5.356-8.101-7.432-10.706a54.066 54.066 0 00-1.993-2.367l-.642-.705c-.295-.319-.714-.773-.993-1.079l-.24-.266c-5.754-6.566-14.765-9.905-24.1-8.924a29.584 29.584 0 00-10.615 3.176l-1.186.617-1.07-.751c-4.911-3.445-11.097-5.23-17.41-5.024l-.747.024-.584-.424c-5.526-4.01-12.802-5.881-19.96-5.13-5.18.545-10.095 2.419-14.21 5.417-.485.353-.967.737-1.481 1.174l-1.642 1.427-1.376-.908c-6.914-4.573-15.475-6.593-24.107-5.686zm1112.839 581.675a.5.5 0 01-.47.883c-4.51-2.398-8.123-1.844-14.075 1.191l-2.464 1.297-.725.376c-5.088 2.598-8.009 3.133-11.403 1.328-3.825-2.034-4.813-4.908-5.21-11.94l-.088-1.687-.048-.782c-.407-6.11-1.369-8.596-4.634-10.332-3.51-1.866-6.735-1.11-12.988 2.147l-1.767.93c-5.796 3.04-8.823 3.821-11.98 2.143-2.603-1.384-3.756-3.796-4.515-8.273l-.11-.683-.544-3.738-.135-.845c-1.114-6.639-3.076-10.352-7.896-12.915a.5.5 0 01.47-.883c5.256 2.795 7.331 6.869 8.48 14.04l.654 4.454c.714 4.458 1.743 6.725 4.065 7.96 2.627 1.396 5.286.804 10.312-1.764l2.105-1.104c6.8-3.58 10.333-4.47 14.319-2.352 3.828 2.036 4.814 4.913 5.21 11.957l.088 1.67.048.783c.406 6.109 1.368 8.595 4.633 10.331 3.017 1.604 5.665 1.122 10.473-1.332l2.427-1.278.773-.401c6.218-3.17 10.123-3.771 14.995-1.18zm-852.588-29.419a.5.5 0 11.358.933c-3.247 1.247-4.494 3.526-5.456 8.455l-.33 1.772-.144.74c-.827 4.064-1.842 5.941-4.349 6.904-2.833 1.088-4.84.176-8.79-3.155l-1.13-.963-.566-.47c-3.298-2.711-5.005-3.39-7.242-2.532-2.451.941-3.44 3.05-4.403 8.037l-.284 1.512c-.905 4.784-1.82 6.874-4.192 7.784-1.948.748-3.785.15-6.55-1.714l-.512-.353-2.21-1.572c-4.313-3.027-7.224-3.953-10.79-2.584a.5.5 0 01-.359-.934c3.864-1.483 7.007-.548 11.392 2.469l2.747 1.946c2.68 1.851 4.315 2.426 5.924 1.809 1.802-.692 2.631-2.39 3.424-6.301l.5-2.619.148-.722c.973-4.565 2.112-6.657 4.806-7.691 2.834-1.088 4.84-.177 8.791 3.154l1.13.963.565.471c3.299 2.71 5.006 3.39 7.243 2.531 2.083-.8 2.966-2.431 3.727-6.168l.264-1.389.136-.735.143-.732c1.017-5.006 2.428-7.472 6.009-8.846zM276.617 336.811a.5.5 0 11-.325.946c-3.289-1.133-5.71-.188-9.614 2.97l-1.392 1.145-.586.474c-3.246 2.581-5.23 3.368-7.769 2.493-2.875-.99-3.825-2.982-4.711-8.092l-.242-1.44-.124-.688c-.786-4.223-1.655-5.847-3.928-6.63-2.482-.854-4.595.125-8.539 3.327l-1.188.976c-3.769 3.084-5.814 4.096-8.215 3.269-1.974-.68-2.997-2.318-3.916-5.524l-.165-.6-.683-2.625c-1.359-5.09-2.993-7.671-6.605-8.915a.5.5 0 01.326-.945c3.913 1.347 5.72 4.083 7.14 9.213l.853 3.257c.864 3.14 1.746 4.632 3.375 5.193 1.825.628 3.552-.139 6.673-2.626l2.066-1.685.623-.492c3.653-2.845 5.863-3.704 8.58-2.768 2.94 1.012 3.868 3.074 4.772 8.446l.182 1.086c.822 4.738 1.66 6.494 4.052 7.318 2.11.726 3.834.044 6.82-2.33l1.67-1.37.623-.502c3.973-3.154 6.633-4.125 10.247-2.88zm634.202 192.903a51.152 51.152 0 00-8.66 39.145 131.733 131.733 0 0011.41 34.273l.523 1.049a273.17 273.17 0 0027.654 44.61c.506.866 1.595 1.305 2.617 1.022 23.925-3.928 44.3-9.53 62.956-17.823a94.645 94.645 0 0026.686-16.958 45.33 45.33 0 009.055-11.403c.12-.173.287-.37.472-.549l.116-.172 4.498-11.133a75.428 75.428 0 001.454-8.443c1.094-17.67-5.802-31.375-20.595-40.422l-.467-.283c-13.247-7.921-27.305-8.182-41.805-1.1l-.164.098-1.352-3.268c-.638-1.535-1.134-2.636-1.685-3.692-14.493-28.029-54.795-30.784-72.713-4.951zm71.825 5.41c.488.936.933 1.91 1.481 3.215l1.405 3.398.362.843.254.581.505-.382c.178-.134.364-.259.556-.372 14.336-7 28.192-6.658 41.276 1.356 14.473 8.85 21.19 22.201 20.121 39.48l-.125 1.033a75.679 75.679 0 01-1.284 7.2l-4.437 10.964.079-.078a4.865 4.865 0 00-.626.74 44.46 44.46 0 01-8.877 11.189 93.66 93.66 0 01-26.412 16.78c-18.579 8.26-38.874 13.84-62.773 17.767-.64.174-1.265-.079-1.574-.603a272.665 272.665 0 01-26.835-42.988l-.753-1.513a130.753 130.753 0 01-11.845-35.058 50.157 50.157 0 018.132-37.872l.363-.515c17.491-25.217 56.86-22.526 71.007 4.835zm312.202-432.779a11.401 11.401 0 00-.548 8.85 28.487 28.487 0 003.708 7.147 58.3 58.3 0 007.302 8.53c.217.27.652.371 1.02.202 4.617-1.546 8.553-3.32 12.072-5.542l.583-.375a20.607 20.607 0 005.125-4.563 10.146 10.146 0 001.585-2.822c-.005.016.01-.009.027-.032l.087-.187.577-2.5a15.95 15.95 0 00.038-1.935c-.365-3.928-2.35-6.713-5.882-8.178l-.31-.123c-2.886-1.1-5.714-.769-8.396.92l-.258.167-.171-.285-.21-.336a7.932 7.932 0 00-.282-.413c-4.13-5.664-13.032-4.848-16.067 1.475zm15.259-.886c.11.152.217.311.345.517l.565.925.342.54.442-.462.071-.067c2.641-1.866 5.412-2.243 8.287-1.049 3.184 1.321 4.938 3.783 5.267 7.322l.011.421c.005.427-.007.864-.037 1.3l-.545 2.331.066-.095a1.439 1.439 0 00-.147.243 9.277 9.277 0 01-1.445 2.585 19.622 19.622 0 01-4.458 4.07l-.997.642c-3.261 2.06-6.89 3.728-11.153 5.205l-.736.25.059.059a57.75 57.75 0 01-7.22-8.432 27.496 27.496 0 01-3.58-6.899c-.93-2.65-.75-5.565.502-8.08 2.711-5.649 10.676-6.378 14.36-1.326zM531.054 75.654c17.29-1.817 32.636 9.161 34.254 24.554 1.618 15.394-11.111 29.322-28.4 31.14l-.744.07c-.247.02-.494.039-.74.054l-.48.025-.122.172c-2.067 2.815-8.088 7.45-12.528 9.378l-1.204.523.76-1.646.401-.883.377-.848c1.397-3.183 2.266-5.595 2.604-7.218l.063-.334-.397-.094c-12.126-2.992-21.04-12.296-22.245-23.753-1.618-15.394 11.112-29.322 28.4-31.14zm.104.995c-16.764 1.762-29.068 15.224-27.51 30.04 1.185 11.275 10.161 20.41 22.316 23.08l.44.096-.05.448-.025.194c-.249 1.777-1.236 4.599-2.963 8.491l-.247.551.037-.018c4.315-2.212 9.598-6.449 11.09-8.789l.14-.22.261-.01c.713-.03 1.432-.083 2.156-.159 16.765-1.762 29.068-15.224 27.51-30.04-1.557-14.816-16.39-25.426-33.155-23.664z" opacity=".3"/></svg>