<svg width="414" height="846" xmlns="http://www.w3.org/2000/svg"><path d="M-20.82 888.057c11.03 1.61 22.137-.479 31.342-5.906l1.072-.63.9.872c.834.81 1.595 1.498 2.368 2.127 5.215 4.241 11.558 7.05 18.34 8.125l.542.081c9.205 1.327 18.69-.659 26.117-5.485l.448-.291.564.047.566.044c8.107.575 16.159-1.363 22.73-5.483l.83-.52.877.515c4.217 2.487 8.844 4.141 13.755 4.919 12.049 1.908 23.99-1.745 32.05-9.788l.645-.65 1.785-1.75a70.071 70.071 0 003.201-3.394l.29-.33.59-.68.629-.74c2.542-3.018 5.456-6.831 8.907-11.724l.657-.936-.317-.058c12.544 2.33 23.747-.72 32.548-8.033 7.707-6.403 13.039-15.766 14.677-25.14 4.267-24.43-4.441-44.176-20.187-56.977-5.218-4.242-11.569-7.052-18.37-8.13l-.812-.12-1.843-.242.242-1.371c2.011-11.342-2.486-22.748-12.019-30.503-5.213-4.237-11.548-7.044-18.322-8.117l-.583-.087c-7.78-1.113-15.769.117-22.567 3.488l-1.554.772-.637-1.527c-2.121-5.083-5.614-9.695-10.1-13.337-5.21-4.242-11.55-7.05-18.331-8.125l-.545-.082c-9.816-1.416-19.784.9-27.433 6.393l-.648.467-.81-.268a39.727 39.727 0 00-6.293-1.529c-12.245-1.94-24.375 1.854-32.442 10.153l-.458.517L.45 715.9l-1.098-.5a39.437 39.437 0 00-10.164-3.047c-12.235-1.938-24.356 1.852-32.42 10.146l-.35.365c-6.566 6.972-9.49 16.286-8.02 25.625l.171 1.083-1.164.32c-10.124 2.79-19.13 8.021-26.044 15.13-21.296 21.904-18.53 56.066 6.145 76.13l.647.517c3.26 2.571 6.956 4.885 11 6.889l.736.364.073.734c1.053 10.822 6.576 20.8 15.546 28.093 6.558 5.333 14.532 8.865 23.06 10.216l.613.093zm-.456-1.08c-8.355-1.324-16.165-4.784-22.587-10.005-8.765-7.126-14.154-16.862-15.18-27.416l-.13-1.286-1.231-.61c-4.248-2.104-8.102-4.555-11.46-7.285-24.227-19.7-26.938-53.181-6.06-74.657 6.789-6.98 15.639-12.12 25.594-14.863l2.025-.559-.31-1.963c-1.446-9.191 1.505-18.353 8.099-25.138 7.832-8.056 19.626-11.743 31.546-9.855a38.436 38.436 0 019.907 2.968l1.768.807 1.625-1.828.442-.501c7.82-8.043 19.623-11.734 31.553-9.844 2.088.33 4.151.831 6.133 1.49l1.294.43 1.064-.766c7.573-5.439 17.503-7.677 27.237-6.135 6.609 1.046 12.784 3.783 17.858 7.913 4.359 3.54 7.75 8.018 9.807 12.946l1.047 2.513 2.512-1.247c6.78-3.362 14.79-4.538 22.548-3.309 6.602 1.046 12.773 3.78 17.849 7.905 9.255 7.53 13.611 18.575 11.664 29.553l-.422 2.4 2.609.343c.35.046.702.096 1.055.153 6.628 1.05 12.814 3.786 17.895 7.917 15.48 12.585 24.034 31.98 19.833 56.028-1.598 9.144-6.809 18.294-14.33 24.544-8.44 7.012-19.134 9.998-31.146 7.923l-.899-.163-1.021 1.458-.845 1.19c-3.75 5.26-6.84 9.191-9.504 12.199a69.38 69.38 0 01-2.768 2.958l-2.3 2.265-.178.179c-7.83 8.054-19.618 11.742-31.53 9.855-4.787-.758-9.295-2.37-13.404-4.792l-1.401-.826-1.345.845c-6.537 4.098-14.595 5.98-22.68 5.29l-.906-.077-.735.479c-7.362 4.784-16.824 6.7-25.957 5.254-6.61-1.047-12.788-3.783-17.866-7.913a32.821 32.821 0 01-1.9-1.682l-1.85-1.79-1.728 1.017c-9.174 5.409-20.286 7.43-31.29 5.687zm14.545-548.078l.006.267a13.848 13.848 0 004.596 9.998 35.727 35.727 0 008.414 5.649 74.482 74.482 0 0013.313 5.048c.36.15.84.02 1.116-.333 4.357-4.496 7.782-8.821 10.455-13.403l.36-.626a25.653 25.653 0 003.085-8.038c.26-1.328.3-2.682.12-4.015l.012-.085-.01-.21-.831-3.099c-.344-.779-.7-1.463-1.094-2.126-2.716-4.068-6.57-5.934-11.388-5.453l-.37.042c-3.932.493-6.933 2.544-8.957 6.029l-.214.38-.494-.287a12.61 12.61 0 00-.992-.528c-7.863-3.7-17.236 2.255-17.127 10.79zm16.7-9.885c.22.102.437.216.707.368l1.189.684.546.302.175-.6c.013-.043.029-.087.047-.13 1.91-3.677 4.87-5.771 8.89-6.17 4.446-.443 7.943 1.25 10.442 4.99l.266.465c.262.471.51.963.735 1.464l.777 2.925-.005.11v.11c.17 1.272.133 2.517-.105 3.735a24.648 24.648 0 01-2.69 7.248l-.28.483c-2.566 4.536-5.866 8.804-10.116 13.265l-.627.651a73.849 73.849 0 01-13.197-5 34.737 34.737 0 01-8.183-5.493 12.852 12.852 0 01-4.265-9.283c-.284-7.93 8.423-13.546 15.695-10.124zm414.085-56.56a.5.5 0 01-.47.883c-4.51-2.398-8.123-1.844-14.075 1.191l-2.464 1.297-.725.376c-5.088 2.598-8.009 3.133-11.403 1.328-3.825-2.034-4.813-4.908-5.21-11.94l-.088-1.687-.048-.782c-.407-6.11-1.369-8.596-4.634-10.332-3.51-1.866-6.735-1.11-12.988 2.147l-1.767.93c-5.796 3.04-8.823 3.821-11.98 2.143-2.603-1.384-3.756-3.796-4.515-8.273l-.11-.683-.544-3.738-.135-.845c-1.114-6.639-3.076-10.352-7.896-12.915a.5.5 0 01.47-.883c5.256 2.795 7.331 6.869 8.48 14.04l.654 4.454c.714 4.458 1.743 6.725 4.065 7.96 2.627 1.396 5.286.804 10.312-1.764l2.105-1.104c6.8-3.58 10.333-4.47 14.319-2.352 3.828 2.036 4.814 4.913 5.21 11.957l.088 1.67.048.783c.406 6.109 1.368 8.595 4.633 10.331 3.017 1.604 5.665 1.122 10.473-1.332l2.427-1.278.773-.401c6.218-3.17 10.123-3.771 14.995-1.18zm-73.588 251.59l-.297.601a36.8 36.8 0 00-1.782 28.506 93.4 93.4 0 0011.556 22.633l.565.802a192.027 192.027 0 0024.036 28.155c.476.589 1.354.791 2.095.449 16.176-5.446 29.722-11.673 41.784-19.592a67.322 67.322 0 0016.72-14.918 32.597 32.597 0 005.073-9.048c.056-.114.146-.263.249-.402l.086-.186 1.918-8.306c.151-2.088.18-4.104.1-6.116-1.158-12.562-7.46-21.433-18.758-26.124l-.471-.193c-9.902-3.956-19.553-2.638-28.724 3.699l-.416.29-1.2-1.99-.388-.63a27.39 27.39 0 00-1.187-1.776c-13.026-17.913-41-15.518-50.96 4.146zm50.15-3.558a28.98 28.98 0 011.335 2.019l1.365 2.259.355.57.342.543.443-.464a4.04 4.04 0 01.333-.312c9.142-6.484 18.74-7.798 28.638-3.68 10.95 4.547 17.022 13.094 18.144 25.267l.03.977a54.177 54.177 0 01-.118 4.926l-1.884 8.133.064-.091a3.623 3.623 0 00-.368.612 31.727 31.727 0 01-4.934 8.812 66.336 66.336 0 01-16.479 14.7c-11.991 7.873-25.462 14.064-41.612 19.505-.377.171-.764.082-.992-.197a191.504 191.504 0 01-23.102-26.848l-.85-1.207a92.402 92.402 0 01-11.995-23.189 35.804 35.804 0 011.502-27.256l.235-.481c9.365-19.54 36.837-22.078 49.548-4.598zM-89.682 51.793c7.123-.632 14.164 1.084 19.883 4.858l.553.364.505-.439c.566-.493 1.08-.91 1.603-1.29 3.514-2.556 7.707-4.152 12.125-4.617l.483-.046c5.949-.51 11.955 1.086 16.557 4.42l.227.164.808-.02c5.209-.07 10.291 1.446 14.363 4.294l.426.3.484-.252a25.28 25.28 0 019.053-2.705c7.817-.822 15.38 1.905 20.317 7.313l.833.917.705.764c.645.709 1.256 1.42 1.946 2.285l.225.283c1.578 2.003 3.383 4.571 5.534 7.94l.807 1.276-.32.04c15.613-2.06 27.687 9.05 29.37 22.93 1.919 15.825-4.367 28.219-14.95 35.914-3.517 2.556-7.715 4.152-12.145 4.618l-.529.05-1.005.078.086.699c.914 7.382-2.386 14.587-8.815 19.264-3.512 2.554-7.7 4.148-12.114 4.612l-.518.049c-5.018.424-10.082-.638-14.321-3.014l-.807-.453-.376.784c-1.546 3.205-3.963 6.06-6.986 8.256-3.512 2.556-7.703 4.152-12.12 4.616l-.465.045c-6.352.552-12.668-1.274-17.397-5.046l-.331-.265-.44.121a25.789 25.789 0 01-4.117.774c-7.976.838-15.685-2.01-20.618-7.628l-.883-1.103-.598.237a25.598 25.598 0 01-6.67 1.62c-7.97.838-15.674-2.009-20.604-7.623l-.275-.319c-3.967-4.707-5.52-10.783-4.255-16.728l.113-.529-.584-.192c-6.428-2.13-12.055-5.79-16.271-10.588-12.99-14.79-10.042-36.656 6.549-48.72l.58-.413c2.153-1.5 4.562-2.828 7.176-3.953l.393-.17.057-.367c1.049-6.93 4.956-13.167 10.994-17.558 4.413-3.209 9.677-5.212 15.225-5.795l.534-.052zm-.43 1.046c-5.373.565-10.47 2.505-14.74 5.61-5.697 4.142-9.418 9.972-10.524 16.457l-.212 1.36-.902.388c-2.784 1.199-5.328 2.63-7.563 4.256-16.123 11.724-18.98 32.912-6.386 47.25 4.097 4.663 9.572 8.226 15.835 10.3l1.433.475-.298 1.403c-1.228 5.77.34 11.666 4.302 16.18 4.712 5.364 12.095 8.092 19.749 7.287a24.598 24.598 0 006.408-1.556l1.284-.505 1.33 1.66c4.698 5.35 12.087 8.08 19.747 7.275a24.79 24.79 0 003.956-.743l.932-.255.728.581c4.635 3.698 10.883 5.446 17.133 4.789 4.244-.446 8.268-1.978 11.637-4.431 2.892-2.1 5.2-4.827 6.673-7.882l.839-1.742 1.734.974c4.203 2.355 9.264 3.366 14.246 2.842 4.24-.445 8.26-1.976 11.63-4.426 6.14-4.467 9.28-11.319 8.41-18.333l-.212-1.735 1.871-.147c.225-.017.45-.038.678-.062 4.256-.447 8.287-1.98 11.66-4.432 10.306-7.493 16.418-19.544 14.546-34.985-1.62-13.36-13.226-24.04-28.246-22.06l-.319.043-.803-1.279-.64-1.003c-2.102-3.267-3.861-5.744-5.396-7.666a44.349 44.349 0 00-1.591-1.888L7.23 65.106c-4.71-5.364-12.09-8.092-19.738-7.288a24.281 24.281 0 00-8.697 2.599l-1.023.53-.922-.647c-4.022-2.814-9.09-4.273-14.26-4.102l-.646.02-.504-.366c-4.524-3.276-10.485-4.804-16.35-4.188-4.244.446-8.27 1.978-11.641 4.43-.496.361-.989.76-1.534 1.236l-1.079.938-1.187-.782c-5.666-3.74-12.685-5.39-19.762-4.647zm476.74-62.162c17.29-1.817 32.637 9.16 34.255 24.554 1.617 15.393-11.112 29.322-28.401 31.139l-.743.07c-.248.021-.494.04-.74.055l-.48.024-.123.172c-2.067 2.815-8.087 7.451-12.527 9.379l-1.204.522.76-1.646.4-.882.392-.883c1.389-3.166 2.252-5.566 2.59-7.184l.063-.333-.397-.095c-12.126-2.991-21.041-12.296-22.245-23.753-1.618-15.393 11.111-29.322 28.4-31.14zm.105.994c-16.765 1.762-29.068 15.225-27.51 30.04 1.17 11.146 9.955 20.2 21.898 22.985l.858.191-.051.449-.025.193c-.239 1.712-1.163 4.392-2.774 8.063l-.435.98.037-.019c4.314-2.212 9.598-6.449 11.09-8.789l.14-.22.26-.01c.713-.03 1.432-.082 2.156-.159 16.765-1.762 29.068-15.224 27.511-30.04C418.331.52 403.498-10.09 386.733-8.329z" opacity=".3"/></svg>