<svg width="728" height="618" xmlns="http://www.w3.org/2000/svg"><g opacity=".3"><path d="M583.466-108.043c13.992-1.318 27.839 2.032 39.067 9.467l1.39.919 1.266-1.104a45.042 45.042 0 013.112-2.514c6.827-4.98 14.974-8.087 23.561-8.99l.614-.06c11.667-1.079 23.474 2.035 32.498 8.592l.58.422.758-.024.627-.017c10.246-.206 20.26 2.756 28.26 8.372l1.076.757 1.207-.63c5.459-2.842 11.377-4.615 17.594-5.268 15.295-1.608 30.085 3.795 39.668 14.474l.89.992c.679.742 1.695 1.84 1.931 2.1l.833.93a87.494 87.494 0 012.523 2.991l.741.928.62.793c3.232 4.172 6.952 9.554 11.415 16.65l.692 1.103-.32.041c15.906-2.1 29.768 2.463 40.336 12.219 9.256 8.544 15.336 20.647 16.775 32.52 2.026 16.72-.6 31.564-7.08 44.385-5.333 10.555-13.1 19.337-22.041 25.858-6.83 4.98-14.989 8.09-23.598 8.994l-.686.068-.683.057-2.128.166.228 1.877c1.778 14.356-4.616 28.366-17.09 37.468-6.824 4.975-14.962 8.08-23.538 8.982l-.63.062c-9.875.91-19.867-1.157-28.21-5.85l-2.027-1.143-.961 2.005c-2.997 6.236-7.685 11.793-13.554 16.068-6.82 4.98-14.965 8.09-23.55 8.992l-.612.06c-12.443 1.153-24.837-2.407-34.095-9.817l-.837-.673-1.102.303a49.97 49.97 0 01-8.001 1.505c-15.5 1.629-30.478-3.927-40.057-14.869l-.538-.676-1.402-1.755-1.504.594a49.603 49.603 0 01-12.962 3.154c-15.489 1.628-30.455-3.923-40.03-14.858l-.369-.429c-7.813-9.182-10.884-21.076-8.42-32.713l.31-1.465-1.555-.516c-12.538-4.17-23.51-11.333-31.729-20.716-25.31-28.906-19.583-71.622 12.742-95.197l.751-.54c4.292-3.043 9.12-5.73 14.374-7.998l1.017-.438.151-.99c2.035-13.513 9.628-25.674 21.372-34.239 8.59-6.264 18.839-10.175 29.641-11.31l.689-.07zm-.584 1.063c-10.628 1.117-20.71 4.964-29.157 11.124-11.532 8.41-18.978 20.336-20.972 33.582l-.237 1.54-1.524.656c-5.495 2.372-10.517 5.206-14.932 8.427-31.859 23.235-37.494 65.274-12.579 93.73 8.1 9.247 18.921 16.312 31.293 20.426l2.403.8-.496 2.337c-2.437 11.51.685 23.273 8.564 32.276 9.356 10.685 24 16.118 39.172 14.523 4.38-.46 8.654-1.5 12.701-3.091l2.19-.863 1.865 2.332.523.66c9.345 10.672 24 16.109 39.184 14.513a48.97 48.97 0 007.841-1.474l1.593-.438 1.236.992c9.201 7.364 21.588 10.844 33.978 9.542 8.41-.884 16.387-3.929 23.065-8.805 5.738-4.18 10.317-9.608 13.241-15.693l1.423-2.967 2.958 1.667c8.338 4.69 18.37 6.702 28.244 5.664 8.403-.883 16.373-3.924 23.053-8.795 12.187-8.892 18.42-22.55 16.687-36.538l-.355-2.913 3.17-.249c.445-.034.893-.075 1.343-.122 8.435-.887 16.425-3.932 23.113-8.808 8.819-6.431 16.479-15.095 21.737-25.5 6.39-12.646 8.982-27.29 6.98-43.814-1.41-11.64-7.38-23.525-16.46-31.906-10.215-9.43-23.559-13.903-38.905-12.042l-.942.122-1.016-1.624-.877-1.388c-4.482-7.055-8.19-12.325-11.404-16.36a87.472 87.472 0 00-3.345-3.968l-.568-.627-1.883-2.048-.455-.505c-9.353-10.682-23.991-16.115-39.152-14.522-6.092.64-11.89 2.377-17.236 5.162l-1.748.91-1.572-1.107c-7.982-5.604-18.03-8.51-28.28-8.174l-1.101.036-.858-.624c-8.978-6.525-20.795-9.568-32.418-8.346-8.413.884-16.393 3.928-23.076 8.803a41.828 41.828 0 00-2.587 2.063l-2.297 2-2.026-1.338c-11.216-7.427-25.102-10.71-39.1-9.238zM-89.325-95.271c8.668-.786 17.24 1.3 24.197 5.901l.741.49.676-.59a28.187 28.187 0 011.942-1.566c4.258-3.103 9.34-5.04 14.694-5.603l.505-.048c7.237-.64 14.55 1.3 20.147 5.363l.307.223.405-.013.543-.013c6.337-.097 12.523 1.746 17.474 5.217l.572.403.647-.337a30.584 30.584 0 0110.972-3.283c9.491-.998 18.673 2.33 24.655 8.92l.558.622 1.233 1.34.046.05a53.95 53.95 0 012.01 2.34l.597.747.517.665c2.006 2.61 4.314 5.965 7.077 10.368l.18.287-.32.04c9.914-1.309 18.562 1.533 25.152 7.61 5.769 5.319 9.557 12.853 10.453 20.248 2.333 19.245-5.29 34.31-18.13 43.663-4.26 3.103-9.349 5.04-14.717 5.605l-.641.06-1.335.105.118.965c1.11 8.956-2.885 17.697-10.671 23.373-4.256 3.1-9.332 5.035-14.68 5.597l-.555.053c-6.105.53-12.273-.759-17.431-3.657l-1.08-.608-.508 1.058c-1.872 3.89-4.798 7.354-8.461 10.02-4.255 3.103-9.334 5.04-14.688 5.603l-.503.049c-7.719.685-15.398-1.533-21.145-6.127l-.444-.356-.588.162a31.22 31.22 0 01-4.99.938c-9.666 1.016-19.01-2.445-24.987-9.265l-1.12-1.402-.801.316a30.965 30.965 0 01-8.084 1.966c-9.66 1.015-18.995-2.443-24.97-9.26l-.293-.34c-4.834-5.718-6.729-13.109-5.195-20.34l.157-.74-.802-.266c-7.802-2.59-14.63-7.043-19.746-12.877-15.759-17.979-12.19-44.551 7.935-59.213l.603-.432c2.637-1.852 5.595-3.49 8.808-4.875l.533-.23.078-.508c1.27-8.417 6.005-15.991 13.324-21.323 5.352-3.899 11.736-6.333 18.464-7.04l.565-.055zm-.46 1.05c-6.555.689-12.772 3.059-17.98 6.853-6.968 5.076-11.514 12.23-12.848 20.187l-.239 1.536-1.041.448c-3.393 1.464-6.494 3.212-9.218 5.197-19.658 14.322-23.136 40.217-7.772 57.746 4.997 5.698 11.673 10.051 19.31 12.587l1.65.549-.343 1.613c-1.498 7.066.419 14.287 5.262 19.815 5.756 6.566 14.77 9.906 24.113 8.924a29.965 29.965 0 007.823-1.903l1.487-.585 1.243 1.553.325.408c5.743 6.552 14.765 9.894 24.115 8.911a30.195 30.195 0 004.829-.907l1.08-.297.842.675c5.662 4.526 13.289 6.665 20.919 5.863 5.18-.544 10.091-2.417 14.203-5.417 3.531-2.57 6.35-5.906 8.148-9.644l.97-2.02 2.01 1.131c5.132 2.883 11.31 4.12 17.391 3.481 5.174-.543 10.083-2.415 14.196-5.41 7.498-5.467 11.332-13.854 10.268-22.443l-.245-2.002 2.163-.17c.275-.02.55-.046.827-.075 5.195-.546 10.116-2.42 14.233-5.419C70.5-2.186 77.948-16.909 75.662-35.77c-.868-7.161-4.546-14.477-10.138-19.633-6.375-5.878-14.727-8.623-24.343-7.354l-.32.042-.859-1.371c-2.944-4.663-5.356-8.101-7.432-10.706a54.066 54.066 0 00-1.993-2.367l-.642-.705c-.295-.319-.714-.773-.993-1.079l-.24-.266c-5.754-6.566-14.765-9.905-24.1-8.924a29.584 29.584 0 00-10.615 3.176l-1.186.617-1.07-.751c-4.911-3.445-11.097-5.23-17.41-5.024l-.747.024-.584-.424c-5.526-4.01-12.802-5.881-19.96-5.13-5.18.545-10.095 2.419-14.21 5.417-.485.353-.967.737-1.481 1.174l-1.642 1.427-1.376-.908c-6.914-4.573-15.475-6.593-24.107-5.686zm210.251 602.256a.5.5 0 11.358.933c-3.247 1.247-4.494 3.526-5.456 8.455l-.33 1.772-.144.74c-.827 4.064-1.842 5.941-4.349 6.904-2.833 1.088-4.84.176-8.79-3.155l-1.13-.963-.566-.47c-3.298-2.711-5.005-3.39-7.242-2.532-2.451.941-3.441 3.05-4.403 8.037l-.284 1.512c-.905 4.784-1.82 6.874-4.192 7.784-1.948.748-3.785.15-6.55-1.714l-.512-.353-2.21-1.572c-4.313-3.027-7.224-3.953-10.79-2.584a.5.5 0 01-.359-.934c3.864-1.483 7.007-.548 11.392 2.469l2.747 1.946c2.68 1.851 4.315 2.426 5.924 1.809 1.802-.692 2.631-2.39 3.424-6.301l.5-2.619.148-.722c.973-4.565 2.112-6.657 4.806-7.691 2.834-1.088 4.84-.177 8.791 3.154l1.13.963.565.471c3.299 2.71 5.006 3.39 7.243 2.531 2.083-.8 2.966-2.431 3.727-6.168l.264-1.389.136-.735.143-.732c1.017-5.006 2.428-7.472 6.009-8.846zM759.4 150.33a.5.5 0 11.242.97c-3.374.841-4.89 2.951-6.445 7.726l-.543 1.72-.234.716c-1.316 3.932-2.552 5.673-5.157 6.322-3.017.752-4.917-.472-8.602-4.484l-.744-.812c-3.27-3.526-4.929-4.543-7.383-3.93-2.548.634-3.787 2.607-5.35 7.44l-.466 1.465c-1.48 4.64-2.644 6.602-5.109 7.216-2.025.505-3.776-.312-6.292-2.5l-.465-.412-2.002-1.83c-3.913-3.53-6.689-4.804-10.396-3.88a.5.5 0 11-.241-.97c4.015-1.002 7.021.31 11.006 3.838l2.412 2.198.077.069c2.435 2.163 3.987 2.934 5.66 2.517 1.872-.467 2.902-2.051 4.165-5.837l.816-2.538c1.618-4.91 2.999-7.013 5.943-7.747 3.017-.752 4.917.472 8.601 4.484l.744.812.504.536c2.943 3.092 4.554 3.975 6.88 3.395 2.165-.54 3.24-2.052 4.45-5.668l.656-2.059c1.693-5.335 3.375-7.786 7.274-8.758zM397.666 535.061l-.634.894a59.76 59.76 0 00-10.115 45.65 153.692 153.692 0 0013.318 40.091l.558 1.118a318.348 318.348 0 0032.197 52.052c.576.986 1.806 1.483 2.963 1.162 27.9-4.608 51.653-11.164 73.403-20.859a110.455 110.455 0 0031.105-19.807 52.938 52.938 0 0010.549-13.3c.149-.214.347-.448.566-.66l.116-.173 5.253-13.002a88.347 88.347 0 001.697-9.838c1.288-20.598-6.726-36.565-23.94-47.099-15.571-9.545-32.119-9.943-49.204-1.577l-.266.162-1.611-3.904-.358-.855c-.578-1.361-1.067-2.423-1.6-3.448-16.678-32.333-62.82-35.771-83.997-6.607zm83.108 7.065c.573 1.103 1.097 2.253 1.743 3.797l1.667 4.043.373.868.253.583.507-.384c.21-.159.43-.306.656-.44 16.75-8.201 32.935-7.812 48.207 1.55 16.893 10.338 24.73 25.95 23.466 46.157l-.147 1.208a88.608 88.608 0 01-1.505 8.42l-5.192 12.833.078-.078c-.267.26-.508.545-.719.851a52.068 52.068 0 01-10.372 13.087 109.469 109.469 0 01-30.83 19.63c-21.675 9.661-45.348 16.196-73.221 20.802-.773.212-1.54-.098-1.92-.743a317.837 317.837 0 01-31.307-50.282l-.823-1.66a152.708 152.708 0 01-13.788-40.946 58.766 58.766 0 019.572-44.356l.378-.536c20.45-29.509 66.423-26.394 82.924 5.596z"/><path d="M668.284 48.413l-.042-.363c.003.024.005.002.008-.02l-.01-.208-.594-2.213a14.031 14.031 0 00-.793-1.555c-1.962-2.958-4.744-4.322-8.208-3.981l-.322.036c-2.765.359-4.888 1.808-6.326 4.255l-.137.239-.219-.129a9.085 9.085 0 00-.714-.384c-5.729-2.73-12.549 1.696-12.31 7.999a10.112 10.112 0 003.317 7.243 25.59 25.59 0 005.998 4.07 52.842 52.842 0 009.457 3.635c.3.127.712.017.947-.288 3.025-3.146 5.42-6.189 7.296-9.407l.346-.606a18.455 18.455 0 002.185-5.775c.161-.842.202-1.7.121-2.548zm-17.787-3.42c.114.054.228.112.357.183l.302.173.676.393.55.308.174-.606a.72.72 0 01.027-.077c1.319-2.568 3.367-4.027 6.159-4.3 3.091-.303 5.518.886 7.264 3.518l.185.325c.183.33.357.678.516 1.033l.542 2.046-.002.15a8.126 8.126 0 01-.066 2.632 17.46 17.46 0 01-1.828 5.04l-.562.988c-1.733 2.977-3.92 5.804-6.686 8.745l-.494.52.102.029a52.292 52.292 0 01-9.338-3.588 24.6 24.6 0 01-5.768-3.913 9.116 9.116 0 01-2.99-6.534c-.21-5.555 5.827-9.473 10.88-7.065zm54.349 317.352a11.401 11.401 0 00-.548 8.85 28.487 28.487 0 003.708 7.147 58.3 58.3 0 007.302 8.53c.217.27.653.371 1.02.202 4.617-1.546 8.553-3.32 12.072-5.542l.583-.375a20.607 20.607 0 005.125-4.563 10.146 10.146 0 001.585-2.822c-.005.016.01-.009.027-.032l.087-.187.577-2.5c.054-.696.063-1.316.038-1.935-.365-3.928-2.35-6.713-5.882-8.178l-.31-.123c-2.886-1.1-5.714-.769-8.396.92l-.258.167-.171-.285-.21-.336a7.932 7.932 0 00-.282-.413c-4.13-5.664-13.032-4.848-16.067 1.475zm15.259-.886c.11.152.217.311.345.517l.565.925.342.54.442-.462.071-.067c2.641-1.866 5.412-2.243 8.287-1.049 3.184 1.321 4.938 3.783 5.267 7.322l.011.421c.005.427-.007.864-.037 1.3l-.545 2.331.066-.095a1.439 1.439 0 00-.147.243 9.277 9.277 0 01-1.445 2.585 19.622 19.622 0 01-4.458 4.07l-.997.642c-3.261 2.06-6.89 3.728-11.153 5.205l-.736.25.059.059a57.751 57.751 0 01-7.22-8.432 27.496 27.496 0 01-3.58-6.899c-.93-2.65-.75-5.565.502-8.08 2.711-5.649 10.676-6.378 14.36-1.326zM231.054 34.654c17.29-1.817 32.636 9.161 34.254 24.554 1.618 15.394-11.111 29.322-28.4 31.14l-.744.07c-.247.02-.494.039-.74.054l-.48.025-.122.172c-2.067 2.815-8.088 7.45-12.528 9.378l-1.204.523.76-1.646.401-.883.377-.848c1.397-3.183 2.266-5.595 2.604-7.218l.063-.334-.397-.094c-12.126-2.992-21.04-12.296-22.245-23.753-1.618-15.394 11.112-29.322 28.4-31.14zm.104.995c-16.764 1.762-29.068 15.224-27.51 30.04 1.185 11.275 10.161 20.41 22.316 23.08l.44.096-.05.448-.025.194c-.249 1.777-1.236 4.599-2.963 8.491l-.247.551.037-.018c4.315-2.212 9.598-6.449 11.09-8.789l.14-.22.261-.01c.713-.03 1.432-.083 2.156-.159 16.765-1.762 29.068-15.224 27.51-30.04-1.557-14.816-16.39-25.426-33.155-23.664zM21.93 402.838l-.124-.331c.011.03.009.017.008.003l-.06-.196-.934-1.684a11.92 11.92 0 00-.97-1.124c-2.212-2.042-4.765-2.609-7.513-1.637l-.273.102c-2.155.845-3.573 2.448-4.237 4.72l-.048.175-.115-.035a7.64 7.64 0 00-.66-.174c-5.238-1.103-9.87 3.905-8.361 9.043a8.675 8.675 0 004.196 5.283 21.49 21.49 0 005.686 2.134c2.748.632 5.553.999 8.374 1.093.298.05.646-.144.789-.475 1.769-3.129 3.064-6.06 3.914-9.03l.175-.636c.476-1.667.67-3.413.57-5.154a7.737 7.737 0 00-.416-2.077zm-15.133.798c.085.017.17.038.263.062l.96.283.615.172.02-.639c0-.02.002-.04.005-.06.524-2.314 1.85-3.88 4.01-4.642 2.393-.846 4.558-.365 6.483 1.411l.284.302c.188.208.374.429.552.656l.829 1.42c.007.08.022.158.045.234a6.91 6.91 0 01.487 2.138 14.59 14.59 0 01-.537 4.83l-.16.583c-.773 2.714-1.93 5.4-3.514 8.284l-.302.54.154.006a43.298 43.298 0 01-8.246-1.075 20.5 20.5 0 01-5.426-2.036 7.68 7.68 0 01-3.715-4.68c-1.297-4.42 2.696-8.737 7.193-7.79z"/></g></svg>