<svg width="24px" height="24px" viewBox="0 0 24 24" xmlns="http://www.w3.org/2000/svg">
  <path d="M13.6723325,0.539680876 L13.8377054,0.659151534 L22.70963,7.53448302 C23.4442876,8.0448662 23.9399473,8.87518151 23.9949073,9.82372721 L24,10 L24,20 C24,21.5976809 22.75108,22.9036609 21.1762728,22.9949073 L21,23 L3,23 C1.40231912,23 0.0963391206,21.75108 0.00509269341,20.1762728 L0,20 L0,10 C0,8.98498241 0.504082557,8.0876996 1.27556434,7.54483492 L10.16228,0.658983177 C11.189958,-0.1373903 12.6058945,-0.177146469 13.6723325,0.539680876 Z M22,10.6213143 L13.8740851,17.1234752 L13.714525,17.2427303 C12.6882197,17.9582607 11.3222226,17.9602428 10.2940354,17.2486765 L10.1259149,17.1234752 L2,10.6223143 L2,20 C2,20.5128358 2.38604019,20.9355072 2.88337887,20.9932723 L3,21 L21,21 C21.5128358,21 21.9355072,20.6139598 21.9932723,20.1166211 L22,20 L22,10.6213143 Z M11.4995412,2.16442535 L11.3873494,2.23987058 L3,8.73831429 L3,8.86131429 L11.375305,15.5617376 L11.4784906,15.6341777 C11.7941506,15.8273512 12.1919459,15.829736 12.5096339,15.6413323 L12.624695,15.5617376 L21,8.86031429 L21,8.74031429 L12.6124912,2.2399267 C12.2879844,1.98841061 11.8473019,1.9632403 11.4995412,2.16442535 Z" fill="#1E1E1E" fill-rule="nonzero"/>
</svg>
