<svg width="24" height="24" xmlns="http://www.w3.org/2000/svg"><path d="M13.672.54l.166.12 8.872 6.874a2.999 2.999 0 011.285 2.29L24 10v10a3 3 0 01-2.824 2.995L21 23H3a3 3 0 01-2.995-2.824L0 20V10c0-1.015.504-1.912 1.276-2.455L10.162.659a3 3 0 013.51-.12zM22 10.62l-8.126 6.502-.16.12a3 3 0 01-3.42.006l-.168-.126L2 10.623V20a1 1 0 00.883.993L3 21h18a1 1 0 00.993-.883L22 20v-9.379zM11.5 2.164l-.113.076L3 8.738v.123l8.375 6.7.103.073a1 1 0 001.032.007l.115-.08L21 8.862v-.12L12.612 2.24a1 1 0 00-1.112-.076z" fill="#1E1E1E"/></svg>