<svg width="1560px" height="575px" viewBox="0 0 1560 575" xmlns="http://www.w3.org/2000/svg">
    <g stroke="none" stroke-width="1" fill="none" fill-rule="evenodd" opacity="0.300000012">
        <path d="M807.465602,-161.043184 C821.457663,-162.361023 835.305035,-159.010617 846.533039,-151.57565 L847.923819,-150.657061 L849.189486,-151.761096 C850.289901,-152.723936 851.290022,-153.536314 852.301246,-154.274619 C859.127902,-159.254077 867.275396,-162.36227 875.862081,-163.264767 L876.475998,-163.325397 C888.143187,-164.403737 899.950471,-161.290049 908.973507,-154.733024 L909.553479,-154.311132 L910.311852,-154.335038 L910.939429,-154.35162 C921.185363,-154.557727 931.199515,-151.595671 939.198976,-145.980122 L940.274784,-145.222595 L941.482347,-145.852182 C946.940627,-148.695403 952.858969,-150.467814 959.075584,-151.121207 C974.371154,-152.728836 989.160825,-147.325529 998.744051,-136.646891 L999.634053,-135.65492 C1000.31287,-134.912571 1001.32876,-133.815746 1001.56505,-133.555409 L1002.39755,-132.62577 C1003.22483,-131.688918 1004.04389,-130.720719 1004.92148,-129.633755 L1005.66211,-128.705706 L1006.28165,-127.913211 C1009.51371,-123.741282 1013.23361,-118.359269 1017.69741,-111.262591 L1018.38878,-110.159652 L1018.06834,-110.118996 C1033.97451,-112.218513 1047.83716,-107.655602 1058.40533,-97.9002022 C1067.66092,-89.3564384 1073.74077,-77.2525501 1075.17965,-65.3791508 C1077.20583,-48.659409 1074.57911,-33.8161795 1068.09994,-20.9947939 C1062.76678,-10.441214 1055.00106,-1.6576495 1046.05874,4.86317096 C1039.22806,9.84344421 1031.07028,12.9521784 1022.46111,13.8570388 L1021.77461,13.9245179 L1021.09217,13.9822201 L1018.96364,14.1482302 L1019.19201,16.0252301 C1020.9698,30.3810604 1014.57562,44.3906386 1002.10179,53.4933534 C995.278352,58.4680685 987.140244,61.5734485 978.563974,62.4748509 L977.933836,62.5370101 C968.058928,63.4474299 958.067286,61.380176 949.724849,56.6870866 L947.697307,55.5443626 L946.735668,57.5491242 C943.739084,63.7854884 939.051192,69.3418268 933.182227,73.6166955 C926.361076,78.597582 918.217183,81.7061918 909.632269,82.6085027 L909.0203,82.6690172 C896.577461,83.8221419 884.183374,80.2624224 874.925025,72.8522385 L874.087836,72.1787725 L872.986183,72.4817787 C870.387725,73.1960875 867.697386,73.7015832 864.984955,73.9866711 C849.484336,75.6158518 834.506992,70.0599262 824.927718,59.1184363 L824.390307,58.4418761 L822.987607,56.6873371 L821.484382,57.2805249 C817.353118,58.9045572 812.991208,59.9657394 808.521743,60.4354991 C793.033476,62.0633816 778.067312,56.5115943 768.492741,45.5766613 L768.123017,45.1482608 C760.309612,35.9664293 757.239017,24.0722816 759.703189,12.4347287 L760.014018,10.9714331 L758.458268,10.4537362 C745.920187,6.28432796 734.948333,-0.87888205 726.728979,-10.2619317 C701.419741,-39.1683497 707.145662,-81.8835152 739.470696,-105.459298 L740.222393,-105.999809 C744.513755,-109.041852 749.342607,-111.72823 754.596025,-113.996501 L755.613415,-114.434566 L755.764015,-115.42415 C757.798583,-128.93809 765.391589,-141.099473 777.136092,-149.66386 C785.725949,-155.928419 795.974879,-159.839219 806.777363,-160.974606 L807.465602,-161.043184 Z M806.881891,-159.980084 C796.253609,-158.863006 786.172056,-155.016074 777.725314,-148.855889 C766.193058,-140.446277 758.746929,-128.520141 756.752658,-115.273875 L756.516487,-113.734771 L754.991994,-113.078237 C749.496673,-110.705519 744.474963,-107.871618 740.059971,-104.651366 C708.201272,-81.4156977 702.566052,-39.3771582 727.48127,-10.9207636 C735.581533,-1.67366453 746.401997,5.39070704 758.774034,9.5048994 L761.176933,10.3051782 L760.681471,12.64201 C758.244375,24.1516852 761.365766,35.9153537 769.245164,44.9179803 C778.600936,55.6030282 793.245653,61.0355726 808.417215,59.4409772 C812.797421,58.980599 817.071411,57.9408064 821.118104,56.3500197 L823.307778,55.486936 L825.172534,57.8188856 L825.69564,58.4783523 C835.040645,69.1513663 849.696522,74.5880419 864.880427,72.9921492 C867.538862,72.7127365 870.175507,72.2173295 872.721218,71.5175207 L874.314049,71.0800085 L875.550353,72.0718768 C884.751272,79.4360943 897.138035,82.9161913 909.52774,81.6139808 C917.938315,80.7299938 925.914641,77.6853459 932.592986,72.8087387 C938.330514,68.6296058 942.910272,63.201434 945.834165,57.1163506 L947.257174,54.1493649 L950.215387,55.8156668 C958.552528,60.5057774 968.584546,62.5182227 978.459445,61.480329 C986.86154,60.5972333 994.832319,57.5557029 1001.51249,52.6854372 C1013.69866,43.7926454 1019.9318,30.1358947 1018.19949,16.1473103 L1017.84354,13.233611 L1021.01443,12.9852463 C1021.4593,12.9507156 1021.90657,12.9098154 1022.35658,12.8625169 C1030.79172,11.975948 1038.78214,8.93099002 1045.46958,4.05515943 C1054.28888,-2.37595971 1061.94895,-11.0400277 1067.20743,-21.4458168 C1073.59771,-34.0913063 1076.18926,-48.7357849 1074.18691,-65.2588461 C1072.77628,-76.8991654 1066.80621,-88.7844934 1057.72705,-97.1654044 C1047.51228,-106.594578 1034.16811,-111.067723 1018.82241,-109.206523 L1017.8798,-109.085436 L1016.86418,-110.7091 L1015.98693,-112.097012 C1011.50475,-119.151947 1007.79645,-124.421569 1004.58317,-128.457065 C1003.39703,-129.94671 1002.33462,-131.200405 1001.23781,-132.425041 L1000.6701,-133.052111 L998.786822,-135.099762 L998.786822,-135.099762 L998.331722,-135.604526 C988.979184,-146.287375 974.341001,-151.720158 959.180113,-150.126685 C953.087847,-149.486362 947.290816,-147.750281 941.944193,-144.965222 L940.196016,-144.055273 L938.623874,-145.16204 C930.641555,-150.765555 920.594594,-153.671056 910.344238,-153.335563 L909.242855,-153.300235 L908.385363,-153.924268 C899.407136,-160.44873 887.590148,-163.491929 875.966609,-162.270245 C867.554112,-161.386056 859.574024,-158.341727 852.890732,-153.46684 C852.046444,-152.850417 851.207327,-152.17873 850.304445,-151.404095 L848.007127,-149.40307 L845.981346,-150.741603 C834.764841,-158.168956 820.879308,-161.451272 806.881891,-159.980084 Z" fill="#000000" fill-rule="nonzero"/>
        <path d="M210.674968,-54.2710812 C219.342769,-55.0574225 227.914198,-52.9715679 234.87231,-48.3697244 L235.614119,-47.8799672 L236.28919,-48.4695301 C236.974941,-49.0688883 237.599044,-49.5752872 238.23076,-50.0360227 C242.489246,-53.1389477 247.570692,-55.075801 252.92544,-55.6386077 L253.430159,-55.687441 C260.666564,-56.3273081 267.979192,-54.3874259 273.577245,-50.3242513 L273.884556,-50.1014869 L274.288986,-50.1141191 L274.832465,-50.127197 C281.169057,-50.2242562 287.355311,-48.3812309 292.306495,-44.9097791 L292.879359,-44.5073392 L293.52501,-44.8437724 C296.929183,-46.6153 300.620248,-47.7198445 304.496658,-48.1272717 C313.988382,-49.1248921 323.170069,-45.7972853 329.152425,-39.2065083 L329.709981,-38.5846751 L330.943188,-37.245099 L330.943188,-37.245099 L330.98896,-37.1949932 C331.660623,-36.4558098 332.301067,-35.7142317 332.99822,-34.8552003 L333.595721,-34.1076642 L334.112541,-33.4433747 C336.032203,-30.9464571 338.227193,-27.7684005 340.83262,-23.6434749 L341.370283,-22.7880403 L341.049764,-22.7484343 C350.96449,-24.0568076 359.611673,-21.2147225 366.201594,-15.1386161 C371.970822,-9.81921344 375.758919,-2.28498162 376.655182,5.10970895 C378.987752,24.3547688 371.364783,39.4198392 358.525183,48.7727279 C354.26425,51.8761119 349.176442,53.8132841 343.807787,54.3775525 L343.166675,54.4383847 L341.833135,54.5432072 L341.950378,55.5075243 C343.059773,64.4643887 339.065154,73.2048258 331.278994,78.8807442 C327.022524,81.9807091 321.946911,83.9158173 316.59862,84.4779454 L316.043795,84.5312085 C309.938512,85.0618685 303.77124,83.7719549 298.612955,80.8738374 L297.53319,80.2657229 L297.024601,81.3242227 C295.153096,85.2139654 292.226741,88.6783702 288.564003,91.3434442 C284.30916,94.4471055 279.229916,96.3842349 273.876236,96.9469294 L273.372799,96.9957185 C265.653991,97.6806354 257.97465,95.4629532 252.22846,90.8692784 L251.784694,90.5128779 L251.195728,90.6749279 C249.575283,91.12006 247.897711,91.4351017 246.206409,91.6128648 C236.53959,92.6288884 227.196654,89.1679669 221.219026,82.3477999 L220.099056,80.945518 L219.297588,81.2619148 C216.720972,82.2739191 214.000902,82.935227 211.213967,83.2281457 C201.554805,84.2433645 192.218801,80.7850054 186.244089,73.9689036 L185.95055,73.6278366 C181.11695,67.9096927 179.222246,60.5190864 180.75604,53.2875535 L180.913042,52.5480072 L180.110776,52.2817314 C172.309016,49.6911071 165.480873,45.2387233 160.364908,39.4048617 C144.606242,21.4262204 148.175451,-5.14642019 168.299715,-19.8082805 L168.902524,-20.2395201 C171.53955,-22.0917762 174.497948,-23.729257 177.710986,-25.1152972 L178.244413,-25.3447498 L178.322303,-25.8532967 C179.591906,-34.2701063 184.326631,-41.8440368 191.6464,-47.1761703 C196.997652,-51.0747097 203.381532,-53.5085785 210.109555,-54.2157223 L210.674968,-54.2710812 Z M210.214084,-53.2212004 C203.66008,-52.5323469 197.443429,-50.1622341 192.235216,-46.3679034 C185.267149,-41.2919691 180.72099,-34.1387118 179.387077,-26.1811509 L179.148303,-24.6450918 L178.106652,-24.1969029 C174.713533,-22.7331794 171.613375,-20.9853926 168.888585,-19.0000526 C149.231058,-4.67824129 145.752809,21.2172079 161.116839,38.7456197 C166.113646,44.4436029 172.790378,48.797257 180.42613,51.3327572 L182.076906,51.8817453 L181.734251,53.4951671 C180.235537,60.5613064 182.152913,67.7822413 186.996152,73.3098125 C192.752008,79.8762377 201.766727,83.2155823 211.109438,82.2336238 C213.807215,81.950076 216.439459,81.3101204 218.931586,80.3313007 L220.418849,79.7455923 L221.661988,81.2985112 L221.986605,81.7073056 C227.72989,88.2592053 236.751521,91.6011052 246.10188,90.6183429 C247.739249,90.4462485 249.363187,90.141279 250.930942,89.7106208 L252.011566,89.4140152 L252.853337,90.088555 C258.515266,94.6148684 266.141921,96.7543303 273.771708,95.9524075 C278.951229,95.4080179 283.863056,93.5347382 287.975167,90.5351917 C291.506443,87.9657715 294.324595,84.6294648 296.123322,80.8909831 L297.093182,78.8714958 L299.103017,80.0021498 C304.234909,82.8854386 310.412704,84.1226031 316.494091,83.4834235 C321.668388,82.9395831 326.576823,81.0682124 330.690103,78.0725322 C338.188417,72.6064462 342.021731,64.2189505 340.957861,55.6296249 L340.713314,53.6281451 L342.876453,53.4586472 C343.150577,53.4373611 343.426062,53.4121651 343.703259,53.3830306 C348.898063,52.8370346 353.818663,50.9635268 357.936422,47.9644207 C370.498965,38.8133518 377.948475,24.0910848 375.662448,5.23003195 C374.794461,-1.93136081 371.116326,-9.24688614 365.52373,-14.4034293 C359.149177,-20.2809595 350.797105,-23.0260497 341.180593,-21.7570293 L340.861365,-21.7149031 L340.00198,-23.0859713 C337.057806,-27.7485064 334.646099,-31.1874736 332.569961,-33.792047 C331.8635,-34.6783226 331.228302,-35.4289813 330.576532,-36.1587952 L329.934621,-36.8639826 C329.640348,-37.1828325 329.22084,-37.6368503 328.942063,-37.9427347 L328.701834,-38.2094211 C322.947937,-44.7745308 313.93727,-48.1140117 304.601187,-47.1327498 C300.848989,-46.738378 297.279112,-45.6700986 293.986507,-43.9566301 L292.800569,-43.3399286 L291.731862,-44.091368 C286.819569,-47.5355513 280.633636,-49.3217681 274.321455,-49.1146464 L273.573665,-49.0905974 L272.989567,-49.5151567 C267.464386,-53.5254392 260.187851,-55.3964095 253.029969,-54.6440858 C247.849227,-54.0995679 242.935038,-52.2264666 238.81984,-49.2279481 C238.335442,-48.8746569 237.853316,-48.491409 237.338987,-48.0543294 L235.696973,-46.6273731 L234.321091,-47.535364 C227.407215,-52.1079516 218.845917,-54.1284426 210.214084,-53.2212004 Z" fill="#000000" fill-rule="nonzero"/>
        <path d="M1323.05397,528.45432 C1323.29779,528.583961 1323.39035,528.886711 1323.26071,529.13053 C1323.13107,529.374349 1322.82832,529.466909 1322.5845,529.337268 C1318.07405,526.939021 1314.46051,527.49343 1308.50854,530.528183 L1306.04468,531.825081 L1305.32029,532.20099 C1300.23158,534.799233 1297.3112,535.33412 1293.91661,533.529181 C1290.09161,531.495395 1289.10433,528.621138 1288.70656,521.588125 L1288.61855,519.902469 L1288.57056,519.119776 C1288.16445,513.010822 1287.20231,510.524224 1283.93745,508.788267 C1280.42788,506.922196 1277.20231,507.678451 1270.94913,510.935196 L1269.18164,511.865705 C1263.38561,514.905579 1260.35932,515.686454 1257.20191,514.00763 C1254.59894,512.623606 1253.44643,510.212397 1252.68655,505.73548 L1252.57651,505.052001 L1252.03326,501.31369 L1252.03326,501.31369 L1251.89825,500.468553 C1250.78395,493.830353 1248.82192,490.117011 1244.00216,487.554299 C1243.75834,487.424658 1243.66578,487.121909 1243.79542,486.878089 C1243.92507,486.63427 1244.22781,486.54171 1244.47163,486.671351 C1249.72794,489.466178 1251.80323,493.539755 1252.95133,500.711072 L1253.60594,505.164659 L1253.60594,505.164659 C1254.31982,509.622991 1255.34865,511.889663 1257.67138,513.124683 C1260.2977,514.521122 1262.9569,513.929245 1267.98283,511.360523 L1270.08831,510.257227 C1276.88707,506.676181 1280.42122,505.786087 1284.40692,507.905319 C1288.23469,509.940583 1289.22063,512.817537 1289.61784,519.861704 L1289.70497,521.532032 L1289.75297,522.314725 C1290.15907,528.423679 1291.12122,530.910277 1294.38608,532.646234 C1297.40316,534.250442 1300.05136,533.768058 1304.85934,531.313569 L1307.2861,530.035641 L1307.2861,530.035641 L1308.05928,529.63481 C1314.27736,526.465793 1318.18209,525.863895 1323.05397,528.45432 Z" fill="#000000" fill-rule="nonzero"/>
        <path d="M470.465627,499.034715 C470.723428,498.935754 471.012641,499.06452 471.111602,499.322321 C471.210562,499.580122 471.081796,499.869334 470.823995,499.968295 C467.576986,501.214705 466.329735,503.493959 465.368419,508.422875 L465.038424,510.195388 L464.894082,510.935389 C464.06665,514.998702 463.052275,516.876464 460.545492,517.838728 C457.711705,518.926516 455.704906,518.015313 451.754352,514.684249 L450.624069,513.721067 L450.059223,513.250412 C446.76076,510.539835 445.054075,509.860441 442.816583,510.719333 C440.365604,511.660176 439.37605,513.768647 438.413693,518.756057 L438.129969,520.267573 C437.225487,525.052449 436.309716,527.141971 433.93845,528.052214 C431.99009,528.800119 430.152691,528.202814 427.387955,526.337822 L426.876401,525.98524 L424.665968,524.412622 L424.665968,524.412622 C420.352804,521.386179 417.442357,520.459586 413.875589,521.82874 C413.617788,521.9277 413.328576,521.798935 413.229615,521.541134 C413.130655,521.283333 413.25942,520.99412 413.517221,520.895159 C417.380855,519.41205 420.524359,520.346666 424.909135,523.363847 L427.656291,525.310231 L427.656291,525.310231 C430.336933,527.160969 431.971219,527.736219 433.580082,527.118634 C435.381711,526.427053 436.211488,524.729129 437.003564,520.817668 L437.503754,518.199063 L437.652228,517.476978 C438.624637,512.911541 439.763623,510.82011 442.458215,509.785753 C445.292001,508.697964 447.2988,509.609168 451.249354,512.940231 L452.379637,513.903414 L452.944483,514.374069 C456.242946,517.084646 457.949631,517.76404 460.187124,516.905147 C462.270286,516.105496 463.152916,514.473927 463.913976,510.736971 L464.178075,509.348346 C464.233712,509.046585 464.290864,508.736559 464.313919,508.613457 L464.456703,507.88091 C465.473618,502.875127 466.884681,500.409311 470.465627,499.034715 Z" fill="#000000" fill-rule="nonzero"/>
        <path d="M276.617294,336.811199 C276.878391,336.901102 277.017172,337.185644 276.927269,337.446742 C276.837366,337.70784 276.552823,337.84662 276.291725,337.756717 C273.003196,336.624386 270.582669,337.568678 266.678012,340.726525 L265.285872,341.872232 L264.699636,342.346324 C261.453939,344.927139 259.469881,345.713561 256.931042,344.839368 C254.056352,343.849533 253.106342,341.856705 252.219981,336.747203 L251.977573,335.30769 L251.853942,334.619103 C251.067789,330.39643 250.198567,328.772122 247.926168,327.989673 C245.443847,327.134941 243.330506,328.11405 239.387453,331.316038 L238.198524,332.291551 C234.429992,335.375589 232.385351,336.387609 229.983763,335.560676 C228.010489,334.881223 226.9869,333.242603 226.067783,330.036799 L225.902545,329.437884 L225.220115,326.812351 L225.220115,326.812351 C223.861399,321.721512 222.22747,319.140901 218.615092,317.89706 C218.353995,317.807157 218.215214,317.522614 218.305117,317.261516 C218.39502,317.000419 218.679563,316.861638 218.940661,316.951541 C222.8537,318.298909 224.661004,321.035472 226.080531,326.165247 L226.933863,329.422101 L226.933863,329.422101 C227.797723,332.562932 228.679894,334.054097 230.309331,334.615157 C232.133999,335.243441 233.861049,334.476126 236.982053,331.988909 L239.048428,330.304457 L239.670932,329.811958 C243.323787,326.967456 245.533736,326.108271 248.251736,327.044154 C251.191761,328.056486 252.118624,330.117919 253.023155,335.489549 L253.205205,336.575833 C254.027379,341.313781 254.864611,343.070218 257.25661,343.89385 C259.366411,344.620312 261.091297,343.937802 264.076372,341.564327 L265.747714,340.194699 L265.747714,340.194699 L266.369694,339.692145 C270.343213,336.537508 273.003193,335.566764 276.617294,336.811199 Z" fill="#000000" fill-rule="nonzero"/>
        <path d="M910.818984,529.713505 C902.728417,541.031074 899.602377,555.156859 902.158826,568.858695 C904.367429,580.745432 908.207179,592.278136 913.568486,603.132323 L914.092069,604.180599 C921.850209,619.893217 931.11185,634.834079 941.746283,648.791554 C942.252406,649.656682 943.340518,650.096307 944.363348,649.813197 C968.288216,645.884738 988.663437,640.282249 1007.31913,631.989697 C1017.10528,627.871332 1026.12916,622.137719 1034.00528,615.03191 C1037.62085,611.740213 1040.67742,607.890485 1043.05955,603.628681 C1043.18075,603.456157 1043.34721,603.259336 1043.53207,603.080415 L1043.64793,602.90844 L1048.14602,591.775277 C1048.80093,588.939073 1049.27839,586.145529 1049.60003,583.331524 C1050.69427,565.661311 1043.79795,551.956512 1029.00527,542.910114 L1028.53808,542.627351 C1015.29147,534.705862 1001.23307,534.444535 986.733397,541.526937 L986.568815,541.625039 L985.216699,538.356914 C984.579161,536.821747 984.083021,535.721306 983.532374,534.664994 C969.039195,506.636202 928.737038,503.881256 910.818984,529.713505 Z M982.644099,535.124305 C983.131624,536.059541 983.577112,537.034375 984.125442,538.338906 L985.530002,541.737168 L985.891769,542.580334 L986.145596,543.161269 L986.651389,542.779057 C986.82937,542.644563 987.014913,542.52025 987.207128,542.406717 C1001.54278,535.406171 1015.39905,535.749021 1028.48326,543.763051 C1042.95562,552.613563 1049.67362,565.963996 1048.60422,583.243859 L1048.47873,584.275809 C1048.16888,586.683965 1047.73999,589.092799 1047.195,591.476537 L1042.7585,602.440407 L1042.8366,602.361858 C1042.60394,602.587049 1042.3944,602.834805 1042.21107,603.101475 C1039.85711,607.308497 1036.86798,611.073288 1033.33374,614.290944 C1025.54261,621.320071 1016.61406,626.993114 1006.92209,631.07195 C988.342992,639.330346 968.047775,644.910837 944.148894,648.837932 C943.509606,649.011905 942.884063,648.759169 942.574686,648.234546 C932.289029,634.729257 923.315231,620.35234 915.739608,605.246812 L914.98671,603.733836 C909.39195,592.655609 905.404521,580.852945 903.141931,568.675651 C900.673853,555.447463 903.607213,541.817264 911.273749,530.80359 L911.636582,530.289252 C929.128027,505.072126 968.496182,507.763227 982.644099,535.124305 Z" fill="#000000" fill-rule="nonzero"/>
        <path d="M1294.8457,102.345324 C1293.47716,105.096287 1293.27847,108.291803 1294.29812,111.195891 C1295.19,113.742113 1296.43861,116.148351 1298.00641,118.342115 C1300.1589,121.412282 1302.60506,124.270259 1305.30829,126.872647 C1305.5247,127.142678 1305.9605,127.243292 1306.32862,127.073914 C1310.94516,125.527682 1314.88054,123.754925 1318.39985,121.531549 L1318.98259,121.156775 C1320.92817,119.93792 1322.66353,118.393797 1324.10793,116.59418 C1324.78464,115.743257 1325.31941,114.79093 1325.69317,113.771919 C1325.68784,113.788055 1325.70283,113.763175 1325.72016,113.739968 L1325.80674,113.553251 L1326.38408,111.052541 C1326.43842,110.35653 1326.44708,109.736659 1326.42165,109.117761 C1326.05713,105.190148 1324.07272,102.404888 1320.54031,100.939742 L1320.2308,100.816502 C1317.3441,99.7173619 1314.51608,100.048286 1311.834,101.737004 L1311.57551,101.903988 L1311.40479,101.619266 L1311.1951,101.282754 C1311.0972,101.130487 1311.00707,100.998485 1310.91272,100.870005 C1306.78261,95.2062871 1297.88103,96.0218159 1294.8457,102.345324 Z M1310.10473,101.459206 C1310.21592,101.610626 1310.32207,101.770048 1310.44998,101.975555 L1311.01489,102.901011 L1311.357,103.44099 L1311.79869,102.978902 L1311.87039,102.91193 L1311.87039,102.91193 C1314.51134,101.045545 1317.28239,100.6687 1320.15687,101.863305 C1323.34123,103.184092 1325.09519,105.645903 1325.42421,109.184585 L1325.43515,109.606491 C1325.44034,110.032511 1325.42823,110.469538 1325.39808,110.905585 L1324.85338,113.237332 L1324.91895,113.141583 C1324.86207,113.217745 1324.81288,113.299366 1324.77209,113.385245 C1324.41741,114.34614 1323.93536,115.20458 1323.32666,115.969997 C1322.05927,117.549061 1320.55482,118.922435 1318.86859,120.040552 L1317.87165,120.68233 C1314.61105,122.742077 1310.9813,124.409794 1306.71929,125.886932 L1305.98293,126.137022 L1306.04202,126.195805 C1303.34497,123.594485 1300.94076,120.785519 1298.82261,117.764359 C1297.30726,115.643959 1296.10248,113.322186 1295.24177,110.864959 C1294.31147,108.215343 1294.49275,105.299952 1295.74413,102.784387 C1298.45527,97.1363722 1306.4203,96.4066472 1310.10473,101.459206 Z" fill="#000000" fill-rule="nonzero"/>
        <path d="M531.053821,75.6544027 C548.343104,73.8372258 563.690145,84.8149595 565.308058,100.208369 C566.925971,115.601779 554.196698,129.530452 536.907415,131.347629 L536.164057,131.417964 C535.916865,131.438747 535.670283,131.456866 535.424359,131.472313 L534.944806,131.496897 L534.821758,131.669113 C532.754803,134.483612 526.734166,139.119919 522.294269,141.047285 L521.090424,141.569876 L521.850623,139.924178 L522.251159,139.041237 L522.627702,138.193252 C524.025122,135.009723 524.893574,132.598129 525.231701,130.975181 L525.295464,130.640838 L524.898371,130.546643 C512.772477,127.555313 503.857363,118.250708 502.653179,106.793662 C501.035266,91.4002527 513.764538,77.4715796 531.053821,75.6544027 Z M531.15835,76.6489246 C514.393558,78.4109752 502.090492,91.8732833 503.647701,106.689134 C504.832757,117.964193 513.809357,127.098828 525.96403,129.768324 L526.404633,129.865092 L526.353558,130.313295 L526.328987,130.506533 C526.080494,132.284324 525.09333,135.106026 523.365616,138.99814 L523.118714,139.549171 L523.156474,139.531013 C527.470627,137.318891 532.754078,133.082045 534.24643,130.742189 L534.386711,130.522243 L534.647364,130.511482 C535.35977,130.482073 536.078707,130.429221 536.802887,130.353107 C553.567679,128.591056 565.870745,115.128748 564.313536,100.312898 C562.756327,85.4970471 547.923142,74.8868739 531.15835,76.6489246 Z" fill="#000000" fill-rule="nonzero"/>
    </g>
</svg>
