<svg width="414px" height="846px" viewBox="0 0 414 846" version="1.1" xmlns="http://www.w3.org/2000/svg">
    <g stroke="none" stroke-width="1" fill="none" fill-rule="evenodd" opacity="0.300000012">
        <path d="M-20.8195905,888.05703 C-9.78925438,889.666445 1.31683586,887.578358 10.5223003,882.150678 L11.5938633,881.520919 L12.4945203,882.393012 C13.3281714,883.203624 14.088901,883.890946 14.8619026,884.520146 C20.0773498,888.761433 26.4196786,891.570338 33.2025917,892.644646 L33.7437285,892.726471 C42.948849,894.052509 52.4341738,892.067466 59.8612701,887.240845 L60.3094084,886.949545 L60.8729929,886.997264 L61.4386759,887.04141 C69.545771,887.615673 77.5975708,885.677525 84.1688623,881.55838 L84.9992917,881.037101 L85.8756305,881.55316 C90.0927857,884.039606 94.7200608,885.694261 99.6305962,886.472013 C111.679999,888.380451 123.62194,884.726792 131.681009,876.683535 L132.325634,876.033764 L134.11076,874.283934 L134.11076,874.283934 C135.168406,873.234245 136.171945,872.177676 137.312139,870.889699 L137.602343,870.56017 L138.192815,869.879367 L138.820655,869.140894 C141.362636,866.121541 144.276635,862.308695 147.727569,857.415647 L148.385331,856.479518 L148.067538,856.422062 C160.612043,858.751554 171.815001,855.701783 180.616146,848.389095 C188.322813,841.985787 193.655041,832.623066 195.292716,823.248582 C199.560336,798.819606 190.851939,779.07293 175.10623,766.271755 C169.887651,762.029681 163.537204,759.21993 156.736591,758.142819 L155.923974,758.022541 L154.081399,757.78043 L154.32254,756.408577 C156.334397,745.06705 151.836563,733.661211 142.304498,725.90616 C137.091415,721.668779 130.756413,718.862495 123.981706,717.789487 L123.398697,717.701617 C115.619686,716.58865 107.630447,717.819196 100.832099,721.189816 L99.277868,721.962288 L98.6412831,720.435448 C96.5199161,715.35245 93.0266241,710.740466 88.5417565,707.098301 C83.3308508,702.856197 76.9913765,700.0471 70.2098427,698.973011 L69.6646964,698.890543 C59.8489589,697.475268 49.8808371,699.790507 42.2320548,705.28383 L41.5835092,705.751318 L40.7736086,705.482877 C38.7393951,704.807175 36.6235783,704.293606 34.4810426,703.954262 C22.2363603,702.014895 10.1062233,705.807584 2.03857959,714.106574 L1.58130633,714.624166 L0.448570252,715.899335 L-0.64861327,715.398424 C-3.86256309,713.935997 -7.28300339,712.911321 -10.8134416,712.352154 C-23.0483916,710.414329 -35.1694973,714.204201 -43.2331417,722.498186 L-43.5821463,722.862949 C-50.1493812,729.834762 -53.0726628,739.14862 -51.6020966,748.488318 L-51.4315766,749.571046 L-52.5961939,749.891307 C-62.7198286,752.6805 -71.7258683,757.912008 -78.6404621,765.021027 C-99.9355726,786.925358 -97.1695147,821.087196 -72.4949594,841.150838 L-71.8484994,841.668394 C-68.5871501,844.239125 -64.891956,846.552947 -60.8480001,848.556911 L-60.112247,848.921256 L-60.0389759,849.654649 C-58.9862825,860.477247 -53.4626967,870.455849 -44.4934912,877.747917 C-37.9346754,883.080822 -29.9609222,886.613011 -21.4322965,887.963812 L-20.8195905,888.05703 Z M-21.275862,886.976124 C-29.6314144,885.652734 -37.4413072,882.193132 -43.8626412,876.972012 C-52.6280287,869.84565 -58.0173174,860.109663 -59.043812,849.55643 L-59.1726495,848.269635 L-60.4044032,847.660685 C-64.6524265,845.555596 -68.5064056,843.105386 -71.8640581,840.374975 C-96.090873,820.675405 -98.8018536,787.193791 -77.9235377,765.718178 C-71.134961,758.738719 -62.2852713,753.598034 -52.3303571,750.855325 L-50.3045811,750.2962 L-50.6142874,748.332649 C-52.061433,739.141696 -49.1100315,729.980284 -42.5160776,723.195193 C-34.6839911,715.139381 -22.8902,711.451849 -10.969876,713.339843 C-7.52812173,713.884963 -4.19439749,714.883661 -1.06319273,716.308437 L0.70504828,717.114978 L2.32998981,715.28709 L2.772089,714.78582 C10.5917588,706.742759 22.3945613,703.052416 34.3246081,704.94195 C36.4134957,705.272797 38.4761971,705.773474 40.4584735,706.431923 L41.7523428,706.86141 L42.8158652,706.09572 C50.3885934,700.657019 60.3187235,698.418877 70.0534082,699.960699 C76.6617306,701.007355 82.8371606,703.743761 87.9108879,707.87419 C92.2695215,711.413841 95.6615629,715.89215 97.71829,720.820265 L98.7647195,723.332704 L101.276546,722.085621 C108.05689,718.723928 116.066356,717.548284 123.825272,718.777176 C130.42693,719.822776 136.59812,722.556494 141.673575,726.682006 C150.929426,734.212336 155.285011,745.257452 153.337768,756.234727 L152.915975,758.635532 L155.524705,758.977957 C155.874839,759.023665 156.22654,759.0745 156.580157,759.130507 C163.207864,760.180233 169.394465,762.91749 174.475433,767.047703 C189.955282,779.632735 198.508763,799.028131 194.307635,823.076493 C192.710349,832.219778 187.499122,841.370036 179.977076,847.619946 C171.537535,854.632185 160.844043,857.618102 148.832351,855.543221 L147.933298,855.380038 L146.911529,856.837649 L146.067227,858.028281 C142.317113,863.287092 139.226151,867.218958 136.563382,870.226855 C135.578773,871.33908 134.698629,872.275182 133.795274,873.185277 L131.494681,875.449713 L131.31702,875.628773 C123.487562,883.683 111.698938,887.370986 99.7870307,885.484325 C95.0000426,884.72614 90.4920563,883.114141 86.3833941,880.691663 L84.9819774,879.86596 L83.6371774,880.711438 C77.0998611,884.809285 69.0420959,886.690068 60.9576112,886.000851 L60.0510841,885.924164 L59.3160742,886.402537 C51.9539255,891.18695 42.4916785,893.103428 33.3590261,891.656958 C26.7491729,890.61006 20.5707336,887.873739 15.493006,883.744448 C14.8698251,883.237196 14.2523887,882.68864 13.592489,882.061508 L11.7432257,880.272239 L10.0148266,881.289011 C0.840993194,886.698041 -10.2714913,888.719045 -21.275862,886.976124 Z" fill="#000000" fill-rule="nonzero" />
        <path d="M-6.73116899,338.898666 L-6.72466023,339.166198 C-6.64290613,342.982085 -4.98442519,346.592266 -2.12908658,349.164169 C0.384160651,351.431365 3.21711764,353.333255 6.28453282,354.812617 C10.5392519,356.912037 14.9991845,358.603185 19.5983149,359.860608 C19.9585803,360.010077 20.4383146,359.881532 20.7143784,359.527856 C25.0712194,355.032342 28.4957075,350.706718 31.1689352,346.125394 L31.5288267,345.499043 C33.0037175,343.009175 34.0483132,340.288985 34.6139542,337.46053 C34.8730677,336.133416 34.9133126,334.778504 34.7335358,333.445535 L34.7456752,333.360854 L34.7351824,333.150813 L33.9048621,330.052015 C33.5609683,329.273358 33.2047476,328.58892 32.8106816,327.925734 C30.094614,323.857788 26.2411039,321.992423 21.4233298,322.473379 L21.0520652,322.515029 C17.120956,323.008026 14.1198127,325.059124 12.0962269,328.543978 L11.8816908,328.92478 L11.3879149,328.637178 C10.9917717,328.408603 10.6969815,328.250076 10.3955203,328.109432 C2.53324628,324.409593 -6.84027438,330.364239 -6.73116899,338.898666 L-6.73116899,338.898666 Z M9.96972843,329.014253 C10.1885822,329.116362 10.4061335,329.230258 10.6755483,329.382018 L11.864749,330.065638 L12.4109767,330.367619 L12.5864889,329.768659 C12.5993911,329.724629 12.6148304,329.681292 12.6327364,329.638859 C14.5429696,325.961292 17.5031158,323.866938 21.5223266,323.468467 C25.9690043,323.024557 29.4662527,324.717467 31.9650473,328.458846 L32.2313181,328.922892 C32.4929824,329.394114 32.7400967,329.885677 32.9660826,330.386927 L33.7431361,333.312117 L33.737718,333.421118 L33.7384235,333.532396 C33.9076751,334.803835 33.8706939,336.048866 33.632928,337.266669 C33.126077,339.801122 32.2177794,342.247357 30.9423497,344.514907 L30.6634365,344.998043 C28.097435,349.533821 24.7974157,353.801694 20.5466046,358.262812 L19.9202045,358.91436 L19.9202045,358.91436 C15.3244663,357.655417 10.9244004,355.98697 6.72297985,353.913871 C3.73697889,352.473751 0.983316253,350.625095 -1.45954094,348.421398 C-4.11047244,346.033612 -5.64905779,342.684419 -5.72509608,339.137568 C-6.00933242,331.207492 2.69777348,325.592207 9.96972843,329.014253 Z" fill="#000000" fill-rule="nonzero"/>
        <path d="M424.05397,272.45432 C424.297789,272.583961 424.390349,272.886711 424.260708,273.13053 C424.131067,273.374349 423.828317,273.466909 423.584498,273.337268 C419.074052,270.939021 415.460512,271.49343 409.508535,274.528183 L407.044684,275.825081 L406.320292,276.20099 C401.231577,278.799233 398.311202,279.33412 394.916606,277.529181 C391.091609,275.495395 390.104333,272.621138 389.706556,265.588125 L389.618553,263.902469 L389.57056,263.119776 C389.164453,257.010822 388.202308,254.524224 384.937448,252.788267 C381.42788,250.922196 378.202313,251.678451 371.949135,254.935196 L370.181644,255.865705 C364.385612,258.905579 361.359316,259.686454 358.201908,258.00763 C355.598937,256.623606 354.446428,254.212397 353.686547,249.73548 L353.576514,249.052001 L353.033264,245.31369 L353.033264,245.31369 L352.898246,244.468553 C351.783948,237.830353 349.821922,234.117011 345.002162,231.554299 C344.758343,231.424658 344.665783,231.121909 344.795424,230.878089 C344.925065,230.63427 345.227815,230.54171 345.471634,230.671351 C350.727939,233.466178 352.803233,237.539755 353.951326,244.711072 L354.60594,249.164659 L354.60594,249.164659 C355.319822,253.622991 356.348646,255.889663 358.67138,257.124683 C361.2977,258.521122 363.956903,257.929245 368.982833,255.360523 L371.088312,254.257227 C377.887072,250.676181 381.421222,249.786087 385.406919,251.905319 C389.234694,253.940583 390.220625,256.817537 390.617835,263.861704 L390.704972,265.532032 L390.752965,266.314725 C391.159072,272.423679 392.121218,274.910277 395.386077,276.646234 C398.403155,278.250442 401.051357,277.768058 405.859339,275.313569 L408.286098,274.035641 L408.286098,274.035641 L409.05928,273.63481 C415.277358,270.465793 419.182088,269.863895 424.05397,272.45432 Z" fill="#000000" fill-rule="nonzero"/>
        <path d="M350.465586,524.043898 L350.169335,524.645062 C345.7624,533.517425 345.118252,543.804593 348.387165,553.151153 C351.193117,561.193194 355.08154,568.808029 359.943081,575.784105 L360.508341,576.58619 C367.59676,586.725405 375.646692,596.155104 384.543683,604.74057 C385.019982,605.329788 385.897672,605.532418 386.639319,605.189995 C402.814913,599.743581 416.360851,593.517262 428.422814,585.597881 C434.780451,581.602785 440.43518,576.558339 445.142816,570.680313 C447.305908,567.954482 449.018279,564.899873 450.215752,561.631734 C450.272193,561.51761 450.361587,561.369026 450.46491,561.230394 L450.551194,561.044075 L452.468769,552.738144 C452.620161,550.650403 452.649446,548.634483 452.568101,546.621793 C451.410981,534.060305 445.108534,525.189329 433.811282,520.497709 L433.339578,520.305339 C423.437767,516.349299 413.787198,517.666888 404.615553,524.003519 L404.200339,524.29335 L402.999928,522.304312 L402.612444,521.673061 C402.18088,520.980048 401.813056,520.427798 401.424841,519.897647 C388.399428,501.985494 360.42497,504.37984 350.465586,524.043898 L350.465586,524.043898 Z M400.61607,520.485772 C401.043429,521.069385 401.447416,521.684336 401.951062,522.505046 L403.315665,524.763562 L403.671025,525.334801 L404.0133,525.87665 L404.455598,525.412834 C404.560811,525.302502 404.672146,525.198242 404.789064,525.100556 C413.931138,518.616717 423.529826,517.302628 433.427429,521.421103 C444.376313,525.96805 450.448666,534.515159 451.570619,546.687875 L451.600784,547.665321 C451.636185,549.297873 451.597156,550.946458 451.482789,552.59098 L449.59868,560.724482 L449.663108,560.632804 C449.52037,560.824319 449.396897,561.029548 449.294501,561.24547 C448.116043,564.455619 446.456206,567.416514 444.360887,570.056949 C439.724476,575.846035 434.15372,580.815571 427.882359,584.756568 C415.890575,592.629752 402.420248,598.821317 386.270095,604.262211 C385.892747,604.433251 385.506252,604.344021 385.27826,604.064644 C376.743082,595.823625 369.02149,586.848828 362.176379,577.21693 L361.32531,576.009526 C356.251563,568.889903 352.214049,561.08374 349.331221,552.821368 C346.210043,543.897216 346.755902,534.091426 350.833448,525.56485 L351.068023,525.083594 C360.433102,505.544684 387.904819,503.005643 400.61607,520.485772 Z" fill="#000000" fill-rule="nonzero"/>
        <path d="M-89.6819481,51.7928367 C-82.5587091,51.1613529 -75.5183348,52.8773081 -69.7994212,56.6512024 L-69.2463464,57.0149679 L-68.7410708,56.5760954 C-68.1754138,56.0826774 -67.6602166,55.6654572 -67.1384262,55.2856158 C-63.6238549,52.7295914 -59.4307992,51.1338339 -55.0127019,50.6694732 L-54.5304808,50.6234413 C-48.5811985,50.1127587 -42.5751914,51.7093591 -37.9725502,55.0427791 L-37.7457298,55.2073545 L-36.9377125,55.1865853 C-31.7290455,55.1172009 -26.6466308,56.6331496 -22.5754443,59.4813504 L-22.1493053,59.7801344 L-21.6649075,59.5291953 C-18.8558508,58.0698949 -15.8101882,57.1597399 -12.6119984,56.8235966 C-4.79500024,56.001997 2.76777987,58.7290313 7.70542444,64.1370457 L8.53796534,65.0543626 C8.83529412,65.3765313 9.1510855,65.7169254 9.2429036,65.8177723 C9.88828667,66.5266179 10.4987294,67.238229 11.1890185,68.1025404 L11.4138976,68.386027 C12.9919926,70.3887247 14.7968935,72.9572341 16.947752,76.3253696 L17.755147,77.6016113 L17.4352746,77.6415103 C33.0477515,75.5821209 45.1224306,86.6923034 46.805156,100.57192 C48.7237959,116.397429 42.4378558,128.790966 31.8546567,136.485598 C28.3380983,139.041978 24.1398154,140.637991 19.7102972,141.103552 L19.1813777,141.15375 L18.1756615,141.232231 L18.2617766,141.930995 C19.1764433,149.313361 15.8759511,156.517633 9.44741893,161.194997 C5.93451482,163.748581 1.7462619,165.342905 -2.66652556,165.806707 L-3.18535998,165.855898 C-8.20272462,166.28009 -13.2670592,165.218023 -17.5061816,162.841796 L-18.3127196,162.389205 L-18.6892005,163.172552 C-20.2351981,166.378118 -22.6515427,169.232715 -25.6752766,171.428672 C-29.1867446,173.985231 -33.3780043,175.581224 -37.7952366,176.045493 L-38.2600684,176.090097 C-44.6121879,176.64163 -50.92785,174.816466 -55.6574494,171.043544 L-55.9881038,170.779317 L-56.4280415,170.900498 C-57.7650796,171.2673 -59.1491535,171.526984 -60.5445188,171.673642 C-68.5206928,172.511972 -76.2303005,169.663334 -81.1634401,164.046001 L-82.0459511,162.943177 L-82.6441798,163.179515 C-84.7703347,164.013285 -87.0146235,164.558267 -89.3139385,164.799934 C-97.2838161,165.637602 -104.987723,162.791066 -109.918465,157.177072 L-110.192717,156.858279 C-114.160249,152.151288 -115.712384,146.075498 -114.447533,140.129892 L-114.334712,139.601403 L-114.918572,139.408946 C-121.347459,137.279771 -126.974278,133.618889 -131.190264,128.8208 C-144.179584,114.03093 -141.231986,92.1653394 -124.641315,80.1008309 L-124.060708,79.6875192 C-121.908305,78.1876606 -119.498896,76.8604761 -116.885358,75.7348816 L-116.492145,75.5651183 L-116.435418,75.1977916 C-115.386416,68.267294 -111.478955,62.0307237 -105.440719,57.6404628 C-101.02757,54.4314482 -95.7635632,52.427642 -90.2163271,51.8446039 L-89.6819481,51.7928367 Z M-90.1117986,52.8391258 C-95.4853408,53.4039079 -100.582388,55.344159 -104.852632,58.4492605 C-110.5489,62.5908848 -114.270324,68.4205262 -115.375597,74.9056771 L-115.588393,76.2661058 L-116.490235,76.6535094 C-119.274372,77.852578 -121.817927,79.2840255 -124.053175,80.9095897 C-140.176386,92.6341679 -143.032557,113.82155 -130.438981,128.160821 C-126.342273,132.823161 -120.866902,136.38551 -114.603961,138.459726 L-113.170599,138.935165 L-113.469449,140.338104 C-114.696974,146.108255 -113.129517,152.003833 -109.167049,156.517243 C-104.455266,161.881936 -97.072352,164.609868 -89.418467,163.805413 C-87.2081301,163.573097 -85.0514967,163.0494 -83.0096839,162.248706 L-81.7263033,161.744083 L-80.3964775,163.404769 C-75.6978153,168.75421 -68.3092194,171.484237 -60.6490472,170.67912 C-59.3075048,170.538119 -57.9769563,170.288477 -56.692506,169.936103 L-55.7606182,169.680656 L-55.0333857,170.26217 C-50.3975574,173.960289 -44.1504529,175.707945 -37.899765,175.050971 C-33.6563655,174.604972 -29.6322541,173.072628 -26.263383,170.619889 C-23.3711573,168.519438 -21.0631401,165.792816 -19.5900757,162.738473 L-18.7513442,160.996182 L-17.0169757,161.969628 C-12.8142211,164.325469 -7.75335398,165.335846 -2.77105403,164.812186 C1.46806421,164.366636 5.48940742,162.83585 8.85925671,160.386254 C14.9996208,155.91856 18.1383268,149.067433 17.2692637,142.053132 L17.057165,140.317729 L18.9282734,140.17101 C19.1529262,140.153552 19.3786415,140.132902 19.6057687,140.10903 C23.8617616,139.661707 27.8931045,138.129158 31.266625,135.67676 C41.572442,128.183802 47.6844406,116.133212 45.8124252,100.692276 C44.1925539,87.3310985 32.5860405,76.6516858 17.5660484,78.6329225 L17.2471247,78.6749907 L16.4438915,77.3964728 L15.8031388,76.3926829 C13.7019024,73.1263648 11.9427865,70.6487557 10.4076384,68.7265958 C9.8441249,68.0210202 9.33596186,67.4205277 8.81681115,66.8386141 L7.23073486,65.1059104 C2.5205414,59.7422755 -4.8590407,57.0142362 -12.50747,57.8181185 C-15.5816911,58.1412322 -18.506387,59.0152379 -21.2040402,60.4166643 L-22.2267445,60.9475625 L-23.1492333,60.3003533 C-27.1714714,57.4863974 -32.2384123,56.0272741 -37.4095225,56.1977252 L-38.0546384,56.2185693 L-38.559391,55.8524814 C-43.0834562,52.5759694 -49.0441276,51.047659 -54.9081734,51.6639951 C-59.1525903,52.1101013 -63.1786575,53.6423077 -66.5500755,56.0942216 C-67.0456551,56.4549827 -67.5386977,56.8542616 -68.0843348,57.3302155 L-69.1626978,58.2677878 L-70.3497881,57.4861252 C-76.0162947,53.7468144 -83.0345786,52.09528 -90.1117986,52.8391258 Z" fill="#000000" fill-rule="nonzero"/>
        <path d="M386.628282,-9.32329573 C403.917565,-11.1404726 419.264606,-0.162738889 420.882518,15.2306707 C422.500431,30.6240804 409.771159,44.5527535 392.481876,46.3699304 L391.738518,46.4402651 C391.491325,46.4610483 391.244743,46.4791673 390.998819,46.4946145 L390.518698,46.5189547 L390.396218,46.6914147 C388.329264,49.5059139 382.308626,54.1422201 377.868729,56.0695863 L376.664884,56.5921771 L377.425084,54.9464795 L377.82562,54.0635385 L378.217331,53.1809799 C379.605868,50.01456 380.469259,47.6145504 380.806162,45.9974826 L380.870455,45.663786 L380.472831,45.5689441 C368.346938,42.5776141 359.431823,33.2730096 358.227639,21.8159639 C356.609726,6.4225543 369.338999,-7.50611885 386.628282,-9.32329573 Z M386.73281,-8.32877384 C369.968018,-6.56672319 357.664952,6.89558492 359.222161,21.7114355 C360.393596,32.8568961 369.178488,41.9108551 381.120631,44.6960176 L381.979093,44.8873933 L381.928018,45.3355964 L381.903448,45.5288342 C381.664158,47.2407814 380.7399,49.9207445 379.128997,53.5923884 L378.693705,54.5721192 L378.730935,54.5533147 C383.045087,52.3411923 388.328539,48.1043466 389.82089,45.7644908 L389.961172,45.5445441 L390.221824,45.5337839 C390.93423,45.5043742 391.653167,45.4515229 392.377347,45.3754085 C409.142139,43.6133579 421.445205,30.1510498 419.887996,15.3351992 C418.330788,0.519348658 403.497602,-10.0908245 386.73281,-8.32877384 Z" fill="#000000" fill-rule="nonzero"/>
    </g>
</svg>
