<svg width="728px" height="618px" viewBox="0 0 728 618" xmlns="http://www.w3.org/2000/svg">
    <g stroke="none" stroke-width="1" fill="none" fill-rule="evenodd" opacity="0.300000012">
        <path d="M583.465602,-108.043184 C597.457663,-109.361023 611.305035,-106.010617 622.533039,-98.5756503 L623.923819,-97.6570611 L625.189486,-98.7610961 C626.289901,-99.723936 627.290022,-100.536314 628.301246,-101.274619 C635.127902,-106.254077 643.275396,-109.36227 651.862081,-110.264767 L652.475998,-110.325397 C664.143187,-111.403737 675.950471,-108.290049 684.973507,-101.733024 L685.553479,-101.311132 L686.311852,-101.335038 L686.939429,-101.35162 C697.185363,-101.557727 707.199515,-98.5956706 715.198976,-92.9801216 L716.274784,-92.2225949 L717.482347,-92.8521821 C722.940627,-95.6954035 728.858969,-97.4678142 735.075584,-98.1212068 C750.371154,-99.728836 765.160825,-94.3255292 774.744051,-83.6468915 L775.634053,-82.6549205 C776.312868,-81.9125713 777.328759,-80.8157457 777.565053,-80.5554088 L778.397547,-79.6257696 C779.224829,-78.6889185 780.043889,-77.7207189 780.92148,-76.633755 L781.662108,-75.7057061 L782.281645,-74.9132108 C785.513707,-70.7412817 789.233605,-65.3592686 793.697409,-58.2625913 L794.388776,-57.159652 L794.068339,-57.1189958 C809.974513,-59.2185126 823.837162,-54.6556019 834.405334,-44.9002022 C843.660921,-36.3564384 849.740774,-24.2525501 851.179651,-12.3791508 C853.205832,4.34059101 850.579108,19.1838205 844.099938,32.0052061 C838.766782,42.558786 831.001059,51.3423505 822.058744,57.863171 C815.22806,62.8434442 807.070285,65.9521784 798.461113,66.8570388 L797.774613,66.9245179 L797.092169,66.9822201 L794.963637,67.1482302 L795.192007,69.0252301 C796.969803,83.3810604 790.57562,97.3906386 778.101786,106.493353 C771.278352,111.468068 763.140244,114.573449 754.563974,115.474851 L753.933836,115.53701 C744.058928,116.44743 734.067286,114.380176 725.724849,109.687087 L723.697307,108.544363 L722.735668,110.549124 C719.739084,116.785488 715.051192,122.341827 709.182227,126.616695 C702.361076,131.597582 694.217183,134.706192 685.632269,135.608503 L685.0203,135.669017 C672.577461,136.822142 660.183374,133.262422 650.925025,125.852238 L650.087836,125.178773 L648.986183,125.481779 C646.387725,126.196088 643.697386,126.701583 640.984955,126.986671 C625.484336,128.615852 610.506992,123.059926 600.927718,112.118436 L600.390307,111.441876 L598.987607,109.687337 L597.484382,110.280525 C593.353118,111.904557 588.991208,112.965739 584.521743,113.435499 C569.033476,115.063382 554.067312,109.511594 544.492741,98.5766613 L544.123017,98.1482608 C536.309612,88.9664293 533.239017,77.0722816 535.703189,65.4347287 L536.013914,63.9704386 L534.458268,63.4537362 C521.920187,59.284328 510.948333,52.1211179 502.728979,42.7380683 C477.419741,13.8316503 483.145662,-28.8835152 515.470696,-52.4592984 L516.222393,-52.9998089 C520.513755,-56.0418522 525.342607,-58.7282295 530.596025,-60.9965006 L531.613415,-61.4345658 L531.764015,-62.4241495 C533.798583,-75.9380901 541.391589,-88.0994726 553.136092,-96.66386 C561.725949,-102.928419 571.974879,-106.839219 582.777363,-107.974606 L583.465602,-108.043184 Z M582.881891,-106.980084 C572.253609,-105.863006 562.172056,-102.016074 553.725314,-95.8558888 C542.193058,-87.4462773 534.746929,-75.5201413 532.752658,-62.2738752 L532.516487,-60.7347709 L530.991994,-60.0782365 C525.496673,-57.7055187 520.474963,-54.8716177 516.059971,-51.6513663 C484.201272,-28.4156977 478.566052,13.6228418 503.48127,42.0792364 C511.581533,51.3263355 522.401997,58.390707 534.774034,62.5048994 L537.176933,63.3051782 L536.681471,65.64201 C534.244375,77.1516852 537.365766,88.9153537 545.245164,97.9179803 C554.600936,108.603028 569.245653,114.035573 584.417215,112.440977 C588.797421,111.980599 593.071411,110.940806 597.118104,109.35002 L599.307778,108.486936 L601.172534,110.818886 L601.69564,111.478352 C611.040645,122.151366 625.696522,127.588042 640.880427,125.992149 C643.538862,125.712736 646.175507,125.21733 648.721218,124.517521 L650.314049,124.080008 L651.550353,125.071877 C660.751272,132.436094 673.138035,135.916191 685.52774,134.613981 C693.938315,133.729994 701.914641,130.685346 708.592986,125.808739 C714.330514,121.629606 718.910272,116.201434 721.834165,110.116351 L723.257174,107.149365 L726.215387,108.815667 C734.552528,113.505777 744.584546,115.518223 754.459445,114.480329 C762.86154,113.597233 770.832319,110.555703 777.512489,105.685437 C789.698657,96.7926454 795.931803,83.1358947 794.199487,69.1473103 L793.84354,66.233611 L797.014432,65.9852463 C797.459302,65.9507156 797.906569,65.9098154 798.356584,65.8625169 C806.791724,64.975948 814.782141,61.93099 821.469578,57.0551594 C830.288881,50.6240403 837.948955,41.9599723 843.207425,31.5541832 C849.597708,18.9086937 852.18926,4.26421515 850.186914,-12.2588461 C848.776283,-23.8991654 842.806214,-35.7844934 833.727047,-44.1654044 C823.512282,-53.5945782 810.168114,-58.067723 794.822414,-56.2065225 L793.8798,-56.0854364 L792.864183,-57.7090997 L791.986926,-59.0970121 C787.504746,-66.151947 783.796446,-71.4215691 780.583166,-75.4570647 C779.39703,-76.9467096 778.334616,-78.2004053 777.237807,-79.4250405 L776.670102,-80.0521109 L774.786822,-82.0997624 L774.786822,-82.0997624 L774.331722,-82.6045259 C764.979184,-93.2873754 750.341001,-98.7201584 735.180113,-97.1266849 C729.087847,-96.486362 723.290816,-94.7502811 717.944193,-91.9652221 L716.196016,-91.0552729 L714.623874,-92.1620401 C706.641555,-97.7655554 696.594594,-100.671056 686.344238,-100.335563 L685.242855,-100.300235 L684.385363,-100.924268 C675.407136,-107.44873 663.590148,-110.491929 651.966609,-109.270245 C643.554112,-108.386056 635.574024,-105.341727 628.890732,-100.46684 C628.046444,-99.8504171 627.207327,-99.1787302 626.304445,-98.4040949 L624.007127,-96.4030702 L621.981346,-97.7416031 C610.764841,-105.168956 596.879308,-108.451272 582.881891,-106.980084 Z" fill="#000000" fill-rule="nonzero"/>
        <path d="M-89.3250322,-95.2710812 C-80.6572308,-96.0574225 -72.0858016,-93.9715679 -65.1276899,-89.3697244 L-64.3868758,-88.8798627 L-63.7108099,-89.4695301 C-63.0250592,-90.0688883 -62.4009558,-90.5752872 -61.7692397,-91.0360227 C-57.5107536,-94.1389477 -52.429308,-96.075801 -47.0745598,-96.6386077 L-46.5698406,-96.687441 C-39.3334362,-97.3273081 -32.0208081,-95.3874259 -26.4227551,-91.3242513 L-26.1164383,-91.1013824 L-25.7110144,-91.1141191 L-25.167535,-91.127197 C-18.8309429,-91.2242562 -12.6446893,-89.3812309 -7.69350499,-85.9097791 L-7.12163515,-85.5072347 L-6.47498958,-85.8437724 C-3.07081737,-87.6153 0.620247519,-88.7198445 4.49665819,-89.1272717 C13.9883822,-90.1248921 23.1700692,-86.7972853 29.1524246,-80.2065083 L29.7099809,-79.5846751 L30.9431876,-78.245099 L30.9431876,-78.245099 L30.9889596,-78.1949932 C31.6606233,-77.4558098 32.3010666,-76.7142317 32.9982205,-75.8552003 L33.5957209,-75.1076642 L34.1125405,-74.4433747 C36.1194607,-71.8329608 38.4273062,-68.478079 41.1904617,-64.0750911 L41.3692881,-63.7879358 L41.0497642,-63.7484343 C50.9644895,-65.0568076 59.6116731,-62.2147225 66.2015942,-56.1386161 C71.9708225,-50.8192134 75.7589194,-43.2849816 76.6551823,-35.8902911 C78.9877523,-16.6452312 71.3647832,-1.58016085 58.5251825,7.77272792 C54.2642504,10.8761119 49.176442,12.8132841 43.807787,13.3775525 L43.1666749,13.4383847 L41.8321401,13.5433117 L41.9503782,14.5075243 C43.0597726,23.4643887 39.065154,32.2048258 31.2789944,37.8807442 C27.0225242,40.9807091 21.9469112,42.9158173 16.5986196,43.4779454 L16.0437945,43.5312085 C9.93851187,44.0618685 3.77124001,42.7719549 -1.38704452,39.8738374 L-2.46780454,39.2658275 L-2.97539897,40.3242227 C-4.84690394,44.2139654 -7.77325876,47.6783702 -11.435997,50.3434442 C-15.6908402,53.4471055 -20.7700842,55.3842349 -26.123764,55.9469294 L-26.627201,55.9957185 C-34.3460095,56.6806354 -42.0253496,54.4629532 -47.7715397,49.8692784 L-48.2163002,49.5129824 L-48.8042718,49.6749279 C-50.4247173,50.12006 -52.1022886,50.4351017 -53.7935912,50.6128648 C-63.46041,51.6288884 -72.8033461,48.1679669 -78.7809742,41.3477999 L-79.9009444,39.945518 L-80.702412,40.2619148 C-83.2790285,41.2739191 -85.9990979,41.935227 -88.7860331,42.2281457 C-98.4451949,43.2433645 -107.781199,39.7850054 -113.755911,32.9689036 L-114.04945,32.6278366 C-118.88305,26.9096927 -120.777754,19.5190864 -119.24396,12.2875535 L-119.086958,11.5480072 L-119.889224,11.2817314 C-127.690984,8.6911071 -134.519127,4.23872335 -139.635092,-1.59513826 C-155.393758,-19.5737796 -151.824549,-46.1464202 -131.700285,-60.8082805 L-131.097476,-61.2395201 C-128.46045,-63.0917762 -125.502052,-64.729257 -122.289014,-66.1152972 L-121.755587,-66.3447498 L-121.677697,-66.8532967 C-120.408094,-75.2701063 -115.673369,-82.8440368 -108.3536,-88.1761703 C-103.002348,-92.0747097 -96.6184684,-94.5085785 -89.8904447,-95.2157223 L-89.3250322,-95.2710812 Z M-89.7859162,-94.2212004 C-96.3399202,-93.5323469 -102.556571,-91.1622341 -107.764784,-87.3679034 C-114.732851,-82.2919691 -119.27901,-75.1387118 -120.612923,-67.1811509 L-120.851697,-65.6450918 L-121.893348,-65.1969029 C-125.286467,-63.7331794 -128.386625,-61.9853926 -131.111415,-60.0000526 C-150.768942,-45.6782413 -154.247191,-19.7827921 -138.883161,-2.25438029 C-133.886354,3.44360289 -127.209622,7.79725704 -119.57387,10.3327572 L-117.923094,10.8817453 L-118.265749,12.4951671 C-119.764463,19.5613064 -117.847087,26.7822413 -113.003848,32.3098125 C-107.247992,38.8762377 -98.2332731,42.2155823 -88.8905616,41.2336238 C-86.1927848,40.950076 -83.560541,40.3101204 -81.0684135,39.3313007 L-79.5811511,38.7455923 L-78.3380124,40.2985112 L-78.0133948,40.7073056 C-72.2701101,47.2592053 -63.2484788,50.6011052 -53.8981197,49.6183429 C-52.2607508,49.4462485 -50.6368133,49.141279 -49.0690578,48.7106208 L-47.9884343,48.4140152 L-47.1466632,49.088555 C-41.4847343,53.6148684 -33.8580787,55.7543303 -26.2282924,54.9524075 C-21.0487713,54.4080179 -16.1369444,52.5347382 -12.0248328,49.5351917 C-8.49355664,46.9657715 -5.67540533,43.6294648 -3.87667766,39.8909831 L-2.90681809,37.8714958 L-0.896982671,39.0021498 C4.23490881,41.8854386 10.4127038,43.1226031 16.4940912,42.4834235 C21.6683877,41.9395831 26.5768227,40.0682124 30.6901028,37.0725322 C38.1884165,31.6064462 42.0217313,23.2189505 40.9578608,14.6296249 L40.713314,12.6281451 L42.8764534,12.4586472 C43.1505769,12.4373611 43.4260619,12.4121651 43.7032585,12.3830306 C48.8980628,11.8370346 53.8186625,9.96352678 57.9364216,6.96442073 C70.4989649,-2.18664817 77.9484745,-16.9089152 75.6624475,-35.769968 C74.7944611,-42.9313608 71.1163265,-50.2468861 65.5237297,-55.4034293 C59.149177,-61.2809595 50.7971053,-64.0260497 41.1805926,-62.7570293 L40.8613647,-62.7149031 L40.0019804,-64.0859713 C37.0578062,-68.7485064 34.6460986,-72.1874736 32.5699612,-74.792047 C31.8635001,-75.6783226 31.2283018,-76.4289813 30.576532,-77.1587952 L29.934621,-77.8639826 C29.6403478,-78.1828325 29.2208403,-78.6368503 28.942063,-78.9427347 L28.7018345,-79.2094211 C22.9479372,-85.7745308 13.93727,-89.1140117 4.60118666,-88.1327498 C0.848989465,-87.738378 -2.72088779,-86.6700986 -6.01349347,-84.9566301 L-7.19943111,-84.3399286 L-8.26813777,-85.091368 C-13.180431,-88.5355513 -19.366364,-90.3217681 -25.678545,-90.1146464 L-26.4263347,-90.0905974 L-27.0104334,-90.5151567 C-32.5356144,-94.5254392 -39.8121492,-96.3964095 -46.9700313,-95.6440858 C-52.1507733,-95.0995679 -57.064962,-93.2264666 -61.1801596,-90.2279481 C-61.6645584,-89.8746569 -62.1466843,-89.491409 -62.6610129,-89.0543294 L-64.3030269,-87.6273731 L-65.6789089,-88.535364 C-72.5927855,-93.1079516 -81.1540832,-95.1284426 -89.7859162,-94.2212004 Z" fill="#000000" fill-rule="nonzero"/>
        <path d="M120.465627,508.034715 C120.723428,507.935754 121.012641,508.06452 121.111602,508.322321 C121.210562,508.580122 121.081796,508.869334 120.823995,508.968295 C117.576986,510.214705 116.329735,512.493959 115.368419,517.422875 L115.038424,519.195388 L114.894082,519.935389 C114.06665,523.998702 113.052275,525.876464 110.545492,526.838728 C107.711705,527.926516 105.704906,527.015313 101.754352,523.684249 L100.624069,522.721067 L100.059223,522.250412 C96.7607601,519.539835 95.0540751,518.860441 92.8165825,519.719333 C90.3656036,520.660176 89.3760497,522.768647 88.4136931,527.756057 L88.1299687,529.267573 C87.2254874,534.052449 86.3097155,536.141971 83.9384497,537.052214 C81.9900903,537.800119 80.1526908,537.202814 77.3879554,535.337822 L76.8764008,534.98524 L74.6659685,533.412622 L74.6659685,533.412622 C70.3528038,530.386179 67.4423574,529.459586 63.8755893,530.82874 C63.6177882,530.9277 63.3285757,530.798935 63.2296151,530.541134 C63.1306545,530.283333 63.2594202,529.99412 63.5172213,529.895159 C67.3808546,528.41205 70.524359,529.346666 74.9091349,532.363847 L77.6562908,534.310231 L77.6562908,534.310231 C80.3369332,536.160969 81.9712185,536.736219 83.5800817,536.118634 C85.3817112,535.427053 86.2114883,533.729129 87.0035636,529.817668 L87.5037539,527.199063 L87.6522284,526.476978 C88.6246372,521.911541 89.7636225,519.82011 92.4582146,518.785753 C95.2920012,517.697964 97.2988,518.609168 101.249354,521.940231 L102.379637,522.903414 L102.944483,523.374069 C106.242946,526.084646 107.949631,526.76404 110.187124,525.905147 C112.270286,525.105496 113.152916,523.473927 113.913976,519.736971 L114.178075,518.348346 C114.233712,518.046585 114.290864,517.736559 114.313919,517.613457 L114.456703,516.88091 C115.473618,511.875127 116.884681,509.409311 120.465627,508.034715 Z" fill="#000000" fill-rule="nonzero"/>
        <path d="M759.400566,150.329312 C759.668506,150.262507 759.93987,150.425559 760.006675,150.693499 C760.07348,150.961439 759.910428,151.232803 759.642488,151.299608 C756.267783,152.141016 754.752057,154.25128 753.197223,159.026301 L752.653673,160.745386 L752.420223,161.462281 C751.103765,165.394467 749.86811,167.134611 747.262741,167.784203 C744.245674,168.536442 742.345604,167.312385 738.661401,163.299999 L737.917088,162.488117 C734.647084,158.962327 732.988298,157.945244 730.533616,158.557265 C727.986247,159.192395 726.747111,161.164553 725.184115,165.997507 L724.718298,167.463179 C723.237429,172.10216 722.073835,174.064502 719.609313,174.678977 C717.58433,175.183862 715.833419,174.367086 713.316577,172.179059 L712.851804,171.766762 L710.849502,169.936483 L710.849502,169.936483 C706.937318,166.406955 704.161489,165.132575 700.454449,166.056843 C700.186509,166.123648 699.915145,165.960596 699.84834,165.692657 C699.781535,165.424717 699.944587,165.153353 700.212527,165.086548 C704.228107,164.085351 707.234279,165.396098 711.21867,168.925159 L713.631148,171.123001 L713.631148,171.123001 L713.708144,171.191829 C716.143257,173.35546 717.695256,174.125591 719.367391,173.708681 C721.239874,173.241818 722.270391,171.657675 723.533249,167.871899 L724.348839,165.33377 C725.967386,160.42419 727.347513,158.321036 730.291695,157.586969 C733.308762,156.83473 735.208832,158.058787 738.893035,162.071173 L739.637348,162.883055 L740.140625,163.419039 C743.084166,166.511393 744.695332,167.393716 747.020819,166.813907 C749.185907,166.27409 750.260797,164.762248 751.471603,161.145896 L752.127357,159.086951 C753.820315,153.752492 755.501563,151.301443 759.400566,150.329312 Z" fill="#000000" fill-rule="nonzero"/>
        <path d="M397.666031,535.061152 L397.032002,535.954903 C387.602628,549.158226 383.951528,565.630704 386.916585,581.604356 C389.487477,595.512385 393.969896,609.003598 400.235367,621.696325 L400.792827,622.814189 C409.823026,641.149814 420.606003,658.582667 432.989918,674.866488 C433.565841,675.852201 434.796248,676.349318 435.953086,676.02789 C463.852418,671.420415 487.605803,664.863934 509.356116,655.169289 C520.762039,650.355571 531.27969,643.658614 540.461288,635.361663 C544.672371,631.52167 548.233477,627.031383 551.009851,622.061294 C551.158639,621.848431 551.356526,621.614169 551.576242,621.401192 L551.691828,621.229479 L556.945322,608.226625 C557.706472,604.930468 558.264907,601.671413 558.641876,598.388616 C559.929923,577.790869 551.915636,561.824247 534.702785,551.289993 C519.130728,541.745067 502.583443,541.346737 485.498371,549.713419 L485.232439,549.874817 L483.620526,545.970986 L483.262587,545.116209 C482.685359,543.755023 482.196025,542.693479 481.662754,541.667982 C464.985243,509.335111 418.843011,505.896809 397.666031,535.061152 Z M480.774017,542.126399 C481.34746,543.229159 481.87081,544.378746 482.517154,545.922515 L484.184274,549.965918 L484.556643,550.834327 L484.810377,551.416666 L485.316824,551.033246 C485.52698,550.874141 485.74605,550.727065 485.972979,550.592727 C502.723311,542.391712 518.907764,542.781308 534.180488,552.142757 C551.072821,562.480854 558.909099,578.092833 557.646114,598.300386 L557.49868,599.508016 C557.134835,602.325709 556.632315,605.141336 555.994342,607.927729 L550.802399,620.761447 L550.880231,620.68316 C550.612819,620.942371 550.371955,621.22751 550.161191,621.534376 C547.412927,626.449769 543.919097,630.855227 539.789158,634.621233 C530.692416,642.841497 520.269973,649.477831 508.958141,654.251947 C487.284415,663.912346 463.611056,670.446738 435.737712,675.052831 C434.964975,675.264554 434.198009,674.95468 433.81884,674.310261 C421.815941,658.52184 411.3447,641.702567 402.511253,624.027838 L401.687919,622.368331 C395.170932,609.431564 390.5292,595.646448 387.899858,581.422218 C385.024222,565.930299 388.47714,549.962002 397.471873,537.065835 L397.849859,536.530282 C418.299264,507.021119 464.273148,510.135985 480.774017,542.126399 Z" fill="#000000" fill-rule="nonzero"/>
        <path d="M668.284027,48.4128813 L668.242085,48.0496604 C668.245284,48.0740731 668.246566,48.0520407 668.250046,48.0302418 L668.239262,47.8220086 L667.646176,45.6085817 C667.391805,45.0263972 667.136091,44.5325884 666.853374,44.0540236 C664.891156,41.0958289 662.108723,39.7322309 658.644525,40.0725655 L658.322633,40.1090961 C655.557598,40.4677027 653.435182,41.9173313 651.996558,44.3644044 L651.859987,44.602908 L651.641119,44.4741484 C651.357022,44.3083624 651.144804,44.1928966 650.927089,44.0900408 C645.198251,41.360231 638.378382,45.7861611 638.617772,52.0886126 C638.683129,54.8488643 639.8798,57.4649182 641.93378,59.3317009 C643.726541,60.963527 645.746332,62.3337713 647.932297,63.401128 C650.954561,64.9107413 654.122941,66.129055 657.389373,67.0371561 C657.689819,67.1641132 658.100788,67.0539945 658.336248,66.7493838 C661.360703,63.6026428 663.755059,60.5601744 665.632053,57.3418284 L665.977955,56.736259 C667.024251,54.9500806 667.76459,52.9950459 668.163089,50.9613323 C668.324274,50.1191725 668.364599,49.2617735 668.284027,48.4128813 Z M650.496925,44.9927917 C650.611213,45.0467899 650.724542,45.1052187 650.853582,45.1763617 L651.156156,45.3490502 L651.831613,45.7422428 L652.381544,46.0497992 L652.5561,45.4443687 C652.563656,45.4181591 652.572712,45.3923681 652.583225,45.3671199 C653.901866,42.7989438 655.949736,41.340187 658.741955,41.0678078 C661.833477,40.7640863 664.259992,41.9532583 666.006267,44.5848041 L666.191349,44.9095332 C666.373839,45.240321 666.547853,45.5881484 666.707078,45.9427864 L667.248838,47.9893711 L667.247099,48.138178 C667.368215,49.0439823 667.344622,49.9173627 667.18132,50.7712686 C666.836252,52.532272 666.219084,54.23286 665.352598,55.8119147 L664.790638,56.7994294 C663.058455,59.775973 660.871232,62.6026698 658.105365,65.5443592 L657.611394,66.0635892 L657.712998,66.0928094 C654.452492,65.1827478 651.344055,63.9874837 648.375105,62.5045226 C646.270299,61.4767719 644.329436,60.1600724 642.606637,58.5919283 C640.754648,56.9087268 639.676363,54.5514784 639.617271,52.0577896 C639.406326,46.5028649 645.443559,42.5848466 650.496925,44.9927917 Z" fill="#000000" fill-rule="nonzero"/>
        <path d="M704.8457,362.345324 C703.477162,365.096287 703.278465,368.291803 704.29812,371.195891 C705.189996,373.742113 706.438609,376.148351 708.006408,378.342115 C710.158897,381.412282 712.605056,384.270259 715.308287,386.872647 C715.524697,387.142678 715.960504,387.243292 716.328615,387.073914 C720.945158,385.527682 724.88054,383.754925 728.39985,381.531549 L728.982594,381.156775 C730.928169,379.93792 732.663532,378.393797 734.107933,376.59418 C734.78464,375.743257 735.319409,374.79093 735.693167,373.771919 C735.687836,373.788055 735.702832,373.763175 735.720164,373.739968 L735.806744,373.553251 L736.384079,371.052541 C736.438424,370.35653 736.447084,369.736659 736.421645,369.117761 C736.057131,365.190148 734.072718,362.404888 730.540312,360.939742 L730.230802,360.816502 C727.344103,359.717362 724.516078,360.048286 721.834003,361.737004 L721.575513,361.903988 L721.404785,361.619266 L721.195097,361.282754 C721.097201,361.130487 721.007066,360.998485 720.912719,360.870005 C716.782612,355.206287 707.881031,356.021816 704.8457,362.345324 Z M720.104732,361.459206 C720.215919,361.610626 720.322074,361.770048 720.449982,361.975555 L721.014888,362.901011 L721.357,363.44099 L721.798694,362.978902 L721.870389,362.91193 L721.870389,362.91193 C724.511345,361.045545 727.282387,360.6687 730.156865,361.863305 C733.341228,363.184092 735.095193,365.645903 735.424215,369.184585 L735.435151,369.606491 C735.440344,370.032511 735.428226,370.469538 735.398084,370.905585 L734.853383,373.237332 L734.918955,373.141583 C734.862073,373.217745 734.812879,373.299366 734.772093,373.385245 C734.417408,374.34614 733.93536,375.20458 733.326658,375.969997 C732.05927,377.549061 730.554822,378.922435 728.868585,380.040552 L727.871649,380.68233 C724.611049,382.742077 720.981297,384.409794 716.719288,385.886932 L715.982929,386.137022 L716.042024,386.195805 C713.34497,383.594485 710.94076,380.785519 708.822606,377.764359 C707.307261,375.643959 706.102478,373.322186 705.241775,370.864959 C704.311467,368.215343 704.492746,365.299952 705.744129,362.784387 C708.455273,357.136372 716.420296,356.406647 720.104732,361.459206 Z" fill="#000000" fill-rule="nonzero"/>
        <path d="M231.053821,34.6544027 C248.343104,32.8372258 263.690145,43.8149595 265.308058,59.2083692 C266.925971,74.6017788 254.196698,88.5304519 236.907415,90.3476288 L236.164057,90.4179635 C235.916865,90.4387468 235.670283,90.4568657 235.424359,90.4723129 L234.944806,90.4968966 L234.821758,90.6691131 C232.754803,93.4836123 226.734166,98.1199185 222.294269,100.047285 L221.090424,100.569876 L221.850623,98.9241779 L222.251159,98.0412369 L222.627702,97.1932515 C224.025122,94.0097234 224.893574,91.5981291 225.231701,89.975181 L225.295464,89.640838 L224.898371,89.5466425 C212.772477,86.5553125 203.857363,77.250708 202.653179,65.7936623 C201.035266,50.4002527 213.764538,36.4715796 231.053821,34.6544027 Z M231.15835,35.6489246 C214.393558,37.4109752 202.090492,50.8732833 203.647701,65.6891339 C204.832757,76.9641929 213.809357,86.0988279 225.96403,88.7683235 L226.404633,88.8650918 L226.353558,89.3132949 L226.328987,89.5065326 C226.080494,91.2843239 225.09333,94.1060259 223.365616,97.9981403 L223.118714,98.5491711 L223.156474,98.5310131 C227.470627,96.3188908 232.754078,92.082045 234.24643,89.7421892 L234.386711,89.5222425 L234.647364,89.5114823 C235.35977,89.4820726 236.078707,89.4292213 236.802887,89.3531069 C253.567679,87.5910563 265.870745,74.1287482 264.313536,59.3128976 C262.756327,44.4970471 247.923142,33.8868739 231.15835,35.6489246 Z" fill="#000000" fill-rule="nonzero"/>
        <path d="M21.9305287,402.838275 L21.8061942,402.506528 C21.817459,402.536948 21.8149,402.523687 21.8136692,402.510281 L21.7530732,402.31359 L20.8198792,400.630063 C20.4871621,400.194814 20.1778836,399.841523 19.8499044,399.50606 C17.6375326,397.464493 15.085265,396.897207 12.3367209,397.869041 L12.0635645,397.970726 C9.90899628,398.815862 8.49104899,400.419493 7.82721652,402.69161 L7.77876158,402.865954 L7.66354801,402.830543 C7.39869779,402.751122 7.20207743,402.698525 7.00314595,402.657297 C1.76635222,401.553765 -2.86557214,406.561852 -1.35727421,411.700299 C-0.730911137,413.95119 0.783818708,415.859432 2.83916808,416.982527 C4.62437715,417.959737 6.53900409,418.678441 8.52532611,419.116909 C11.2725297,419.749427 14.0781829,420.11579 16.8988969,420.209911 C17.1965299,420.259055 17.5449002,420.06595 17.6875727,419.734534 C19.457039,416.606169 20.7522165,413.675794 21.6016982,410.705797 L21.7769185,410.068675 C22.2528,408.401908 22.4466584,406.656397 22.3477819,404.91454 C22.3043105,404.20501 22.1637831,403.506863 21.9305287,402.838275 Z M6.79694772,403.635807 C6.88191927,403.653421 6.96649233,403.673535 7.06015988,403.698305 L8.01986681,403.980705 L8.63542232,404.153071 L8.6544671,403.514122 C8.65505802,403.494297 8.65677054,403.474527 8.65959597,403.454909 C9.18389539,401.139878 10.5097835,399.573988 12.6697491,398.811958 C15.0630513,397.965731 17.227633,398.446847 19.1533828,400.223131 L19.4368764,400.525113 C19.6251781,400.733122 19.8111131,400.953545 19.9888097,401.180613 L20.8178575,402.601708 C20.825131,402.68093 20.8402423,402.759242 20.8629678,402.835492 C21.1463042,403.547477 21.3054816,404.254719 21.3495215,404.973456 C21.4419281,406.601426 21.260502,408.234996 20.8126886,409.803796 L20.6529499,410.385977 C19.8801417,413.10032 18.7232455,415.785068 17.1389737,418.669712 L16.8370395,419.209583 L16.9912746,419.215953 C14.1758654,419.118493 11.4341802,418.760483 8.74528499,418.14141 C6.84703434,417.722363 5.02149777,417.037101 3.31900307,416.105168 C1.50032689,415.111398 0.160093535,413.422984 -0.39582097,411.42542 C-1.69304355,407.005886 2.30029675,402.688243 6.79694772,403.635807 Z" fill="#000000" fill-rule="nonzero"/>
    </g>
</svg>
