<?xml version="1.0" encoding="UTF-8"?>
<svg width="37px" height="60px" viewBox="0 0 37 60" version="1.1" xmlns="http://www.w3.org/2000/svg" xmlns:xlink="http://www.w3.org/1999/xlink">
    <!-- Generator: Sketch 63.1 (92452) - https://sketch.com -->
    <title>2</title>
    <desc>Created with Sketch.</desc>
    <g id="Symbols" stroke="none" stroke-width="1" fill="none" fill-rule="evenodd">
        <g id="2" transform="translate(-12.000000, 0.000000)" fill-rule="nonzero">
            <g transform="translate(12.000000, 0.000000)">
                <path d="M32,0 L5,0 C2.23857625,0 0,2.23857625 0,5 L0,55 C0,57.7614237 2.23857625,60 5,60 L32,60 C34.7614237,60 37,57.7614237 37,55 L37,5 C37,2.23857625 34.7614237,0 32,0 Z M5,2 L32,2 C33.6568542,2 35,3.34314575 35,5 L35,55 C35,56.6568542 33.6568542,58 32,58 L5,58 C3.34314575,58 2,56.6568542 2,55 L2,5 C2,3.34314575 3.34314575,2 5,2 Z" id="Rectangle-34" fill="#8E8E8E"></path>
                <path d="M18.5,46 C19.0522847,46 19.5,46.4477153 19.5,47 C19.5,47.5128358 19.1139598,47.9355072 18.6166211,47.9932723 L18.5,48 C17.6715729,48 17,48.6715729 17,49.5 C17,50.3284271 17.6715729,51 18.5,51 C19.2796961,51 19.9204487,50.4051119 19.9931334,49.64446 L20,49.5 C20,48.9477153 20.4477153,48.5 21,48.5 C21.5522847,48.5 22,48.9477153 22,49.5 C22,51.4329966 20.4329966,53 18.5,53 C16.5670034,53 15,51.4329966 15,49.5 C15,47.5670034 16.5670034,46 18.5,46 Z M21,8 C21.5522847,8 22,8.44771525 22,9 C22,9.51283584 21.6139598,9.93550716 21.1166211,9.99327227 L21,10 L16,10 C15.4477153,10 15,9.55228475 15,9 C15,8.48716416 15.3860402,8.06449284 15.8833789,8.00672773 L16,8 L21,8 Z" id="Shape" fill="#1F1F22"></path>
            </g>
        </g>
    </g>
</svg>