<?xml version="1.0" encoding="UTF-8"?>
<svg width="119px" height="52px" viewBox="0 0 119 52" version="1.1" xmlns="http://www.w3.org/2000/svg" xmlns:xlink="http://www.w3.org/1999/xlink">
    <!-- Generator: Sketch 63.1 (92452) - https://sketch.com -->
    <title>3</title>
    <desc>Created with Sketch.</desc>
    <g id="Symbols" stroke="none" stroke-width="1" fill="none" fill-rule="evenodd">
        <g id="3" transform="translate(0.000000, -3.000000)" fill-rule="nonzero">
            <g transform="translate(0.000000, 2.211219)">
                <path d="M118.383196,22.0564659 L118.498261,23.0378151 C119.029484,27.5684178 116.367083,30.7132167 113.239884,31.55045 L113.152707,31.5723297 L113.152436,31.601203 C113.04912,34.2335681 111.315359,36.0557567 109.093135,36.6667367 L108.996073,36.6918616 C108.865442,38.6299903 107.606389,39.8361845 105.639215,40.4358762 L105.409115,40.5023865 C104.763074,40.6792262 104.221905,40.7681993 103.349925,40.8651775 L92.8983528,41.941119 C92.3489357,41.9973267 91.8579797,41.5975016 91.801772,41.0480845 C91.7455642,40.4986674 92.1453894,40.0077115 92.6948064,39.9515037 L102.837358,38.9088878 L103.359812,38.8508326 C103.996571,38.7749631 104.415882,38.7006887 104.881083,38.5733499 C106.025723,38.2600294 106.704184,37.7804412 106.925502,36.9792729 L98.8217854,37.8299991 C98.2725261,37.8877286 97.7804645,37.489265 97.722735,36.9400057 C97.6691291,36.4299792 98.0088733,35.9692712 98.4974494,35.8598365 L98.6127285,35.8409553 L107.875626,34.8673856 C109.535091,34.6929688 110.896335,33.6056665 111.122921,31.8548946 L102.966449,32.7117656 C102.41719,32.7694951 101.925128,32.3710314 101.867399,31.8217722 C101.813793,31.3117457 102.153537,30.8510376 102.642113,30.7416029 L102.757392,30.7227218 L112.02029,29.749152 C114.294579,29.5101146 116.494538,27.5071435 116.563372,24.3169464 L116.562917,24.2588015 L97.6387872,26.2478077 C94.3446941,26.5940308 92.4845403,28.3741127 92.6888791,31.296318 L92.7093117,31.5293859 C92.9368717,33.6944745 91.9801891,35.306942 90.249767,36.3275587 C89.1516333,36.9752468 87.8739222,37.3183387 86.7615918,37.4352494 C86.2123325,37.4929788 85.7202709,37.0945152 85.6625414,36.5452559 C85.604812,35.9959967 86.0032756,35.503935 86.5525349,35.4462056 C87.404779,35.3566311 88.4224516,35.0833649 89.2337147,34.6048754 C90.3302888,33.9581073 90.8597666,33.0656841 90.7202679,31.7384429 C90.2812634,27.5615943 92.9214208,24.8339275 97.1625861,24.2899147 L97.4297302,24.2587639 L118.383196,22.0564659 Z M52.0582451,30.6591657 C52.9019121,32.281285 54.3173678,33.2620191 56.3924817,33.6279176 C58.4675956,33.9938162 60.1331196,33.556342 61.4807048,32.3205996 C61.8957246,31.9400243 62.5266634,31.9755439 62.8899459,32.3999349 C63.2532285,32.8243259 63.2112871,33.4768799 62.7962673,33.8574552 C60.9716429,35.530645 58.686888,36.1307692 56.0336537,35.6629324 C53.3804193,35.1950955 51.4387066,33.8497311 50.2963851,31.6533888 C50.0365584,31.1538198 50.2203331,30.5262748 50.7068573,30.2517277 C51.1933815,29.9771806 51.7984184,30.1595968 52.0582451,30.6591657 Z M1.25441036,1.74918501 L20.5017932,10.318672 L20.7462362,10.4308503 C24.5311841,12.2207464 26.2093029,15.5274506 24.6739023,19.2663759 L24.4943817,19.6915936 C23.8082689,21.477945 24.8415495,22.9302686 26.8400926,24.0428008 C27.3226475,24.3114254 27.4960723,24.9203767 27.2274476,25.4029317 C26.958823,25.8854866 26.3498717,26.0589114 25.8673167,25.7902867 C23.0789418,24.2380776 21.4455054,21.9083599 22.6488371,18.917673 L22.8358868,18.4767872 C23.9035775,15.8341555 22.7784016,13.6158814 19.929692,12.257004 L19.6883199,12.1457629 L2.30489371,4.40616288 L2.28663901,4.46138629 C1.39184418,7.43184464 2.75960763,9.95751746 4.75609429,10.9502948 L4.92872334,11.0316106 L13.4374126,14.8199231 L13.5412149,14.8735033 C13.9720612,15.1285602 14.1528106,15.6717064 13.9442215,16.1402052 C13.7356323,16.6087041 13.2110512,16.8378169 12.7332145,16.6883021 L12.6239394,16.6470141 L5.1314614,13.3115929 L5.09955919,13.5105245 C4.88964363,15.0888277 5.74665339,16.4128773 7.10846724,17.0948339 L7.28891172,17.1801115 L15.797601,20.9684241 L15.9014033,21.0220043 C16.3322496,21.2770612 16.512999,21.8202073 16.3044098,22.2887062 C16.0958207,22.757205 15.5712395,22.9863178 15.0934029,22.836803 L14.9841277,22.795515 L7.53992372,19.4822399 C7.50283547,20.3125875 7.99988885,20.9783588 8.99168534,21.6300577 C9.20762255,21.7719478 9.41574033,21.8952845 9.65194696,22.0205713 L9.89884647,22.1472674 L10.3527527,22.3640578 L10.8316966,22.580719 L20.15565,26.7065263 C20.6608076,26.9297623 20.8893502,27.5202419 20.6661142,28.0253995 C20.4588236,28.4944743 19.9348791,28.7250394 19.4566301,28.5768488 L19.347241,28.5358636 L9.73968962,24.2828692 C9.04027162,23.9663916 8.57984099,23.7340101 8.10065644,23.4344477 L7.893392,23.3015097 L7.69510646,23.1671497 C6.0769508,22.036048 5.25218463,20.5750165 5.60943524,18.7937245 L5.66027601,18.5693956 L5.57496176,18.5151651 C3.71445934,17.289643 2.63780618,15.1287564 3.21412235,12.6957927 L3.27967334,12.4431634 L3.28819127,12.4155543 L3.21218844,12.3678714 C0.555796022,10.6435754 -0.995147987,6.95648864 0.722356983,2.91676603 L0.841723198,2.64694643 L1.25441036,1.74918501 Z M68.788807,24.7114641 C69.6026829,24.8549724 70.1419701,25.6546392 69.9933387,26.4975699 C69.8447073,27.3405006 69.0644409,27.9074944 68.250565,27.7639862 C67.4366891,27.6204779 66.8974019,26.8208111 67.0460333,25.9778804 C67.1946648,25.1349497 67.9749311,24.5679558 68.788807,24.7114641 Z M48.0445933,21.3819437 C48.8584692,21.525452 49.3977564,22.3251188 49.249125,23.1680495 C49.1004935,24.0109802 48.3202272,24.5779741 47.5063513,24.4344658 C46.6924754,24.2909575 46.1531882,23.4912907 46.3018196,22.64836 C46.450451,21.8054293 47.2307174,21.2384354 48.0445933,21.3819437 Z" id="Shape" fill="#000000"></path>
                <path d="M74.1476928,-4 L40.6253424,-4 C37.8097258,-4 35.5272176,-1.71749178 35.5272176,1.0981248 L35.5272176,52.0840752 C35.5272176,54.8996918 37.8097258,57.1822 40.6253424,57.1822 L74.1476928,57.1822 C76.9633093,57.1822 79.2458176,54.8996918 79.2458176,52.0840752 L79.2458176,1.0981248 C79.2458176,-1.71749178 76.9633093,-4 74.1476928,-4 Z M40.6253424,-2 L74.1476928,-2 C75.8587398,-2 77.2458176,-0.61292228 77.2458176,1.0981248 L77.2458176,52.0840752 C77.2458176,53.7951223 75.8587398,55.1822 74.1476928,55.1822 L40.6253424,55.1822 C38.9142953,55.1822 37.5272176,53.7951223 37.5272176,52.0840752 L37.5272176,1.0981248 C37.5272176,-0.61292228 38.9142953,-2 40.6253424,-2 Z" id="Base" fill="#8E8E8E" transform="translate(57.386518, 26.591100) scale(-1, 1) rotate(-459.000000) translate(-57.386518, -26.591100) "></path>
            </g>
        </g>
    </g>
</svg>