<?xml version="1.0" encoding="UTF-8"?>
<svg width="58px" height="35px" viewBox="0 0 58 35" version="1.1" xmlns="http://www.w3.org/2000/svg" xmlns:xlink="http://www.w3.org/1999/xlink">
    <!-- Generator: Sketch 63.1 (92452) - https://sketch.com -->
    <title>Combined Shape</title>
    <desc>Created with Sketch.</desc>
    <g id="Page-1" stroke="none" stroke-width="1" fill="none" fill-rule="evenodd">
        <g id="1-1024" transform="translate(-158.000000, -284.000000)" fill="#1E1E1E" fill-rule="nonzero">
            <g id="Text" transform="translate(48.000000, 198.000000)">
                <g id="Bow">
                    <g transform="translate(110.000000, 86.000000)">
                        <path d="M28,0 C28.5128358,0 28.9355072,0.38604019 28.9932723,0.883378875 L29,1 L28.9999358,10.7265144 C29.1129989,10.5480162 29.2326693,10.3705512 29.3594254,10.1933174 C30.5176083,8.57391374 31.5516813,7.48042523 32.7595004,6.84323192 C34.5020497,5.92393799 36.3164639,6.2101751 37.961952,7.86004761 C39.6089821,9.51148516 39.8830216,11.3201024 38.9447079,13.0499294 C38.3006754,14.2372346 37.2307816,15.2318892 35.5791962,16.4130882 C35.2791781,16.6276585 34.9765454,16.8231184 34.6686104,17.0013945 L57,17 C57.5522847,17 58,17.4477153 58,18 C58,18.5128358 57.6139598,18.9355072 57.1166211,18.9932723 L57,19 L35.222754,19.0003205 C35.315343,19.062893 35.4076171,19.1272023 35.4996541,19.1933043 C37.1470122,20.3764563 38.2153193,21.370531 38.8616751,22.5525986 C39.8048424,24.2774807 39.5428681,26.0786788 37.9102876,27.7156826 C36.2792347,29.3511359 34.4722957,29.6252391 32.7347805,28.7008379 C31.5323788,28.0611304 30.4990563,26.9691894 29.3389875,25.353971 C29.2200844,25.1884167 29.1073488,25.0226904 29.0003867,24.8561359 L29,34 C29,34.5522847 28.5522847,35 28,35 C27.4871642,35 27.0644928,34.6139598 27.0067277,34.1166211 L27,34 L27.0020109,24.6744762 C26.8618774,24.9024013 26.7112858,25.1283458 26.5492391,25.353971 C25.3891703,26.9691894 24.3558478,28.0611304 23.1534461,28.7008379 C21.4159309,29.6252391 19.6089919,29.3511359 17.977939,27.7156826 C16.3453586,26.0786788 16.0833842,24.2774807 17.0265515,22.5525986 C17.6729073,21.370531 18.7412144,20.3764563 20.3885725,19.1933043 C20.4805997,19.1272093 20.572864,19.0629067 20.6654431,19.0003405 L1,19 C0.44771525,19 0,18.5522847 0,18 C0,17.4871642 0.38604019,17.0644928 0.883378875,17.0067277 L1,17 L21.3449416,17.0018144 C21.0212935,16.8153435 20.703545,16.6101237 20.3885725,16.3839067 C18.7412144,15.2007548 17.6729073,14.20668 17.0265515,13.0246125 C16.0833842,11.2997304 16.3453586,9.4985323 17.977939,7.86152844 C19.6089919,6.2260752 21.4159309,5.95197199 23.1534461,6.87637314 C24.3558478,7.51608065 25.3891703,8.60802169 26.5492391,10.2232401 C26.7112028,10.4487497 26.8617232,10.6745785 27.0017956,10.9023848 L27,1 C27,0.44771525 27.4477153,0 28,0 Z M26.734,19 L26.462,19 L26.3033785,19.0240018 C24.3527398,19.3371183 22.8970963,19.8540325 21.555268,20.8177494 C20.137557,21.835966 19.2424239,22.6689 18.7813484,23.5121234 C18.2647425,24.456902 18.386337,25.2929221 19.3940613,26.3033787 C20.404276,27.3163169 21.2550801,27.4453795 22.2140689,26.9351736 C23.071366,26.4790703 23.9319267,25.5696916 24.9247941,24.1872755 L25.0917943,23.9468668 C25.956051,22.659239 26.4031293,21.27438 26.6920604,19.309127 L26.734,19 Z M29.426,19 L29.154,19 L29.1961662,19.309127 C29.4658352,21.1433631 29.8732681,22.4720116 30.6290666,23.6879016 L30.7964323,23.9468668 L30.9634325,24.1872755 C31.9562999,25.5696916 32.8168606,26.4790703 33.6741577,26.9351736 C34.6331465,27.4453795 35.4839506,27.3163169 36.4941653,26.3033787 C37.5018896,25.2929221 37.6234841,24.456902 37.1068782,23.5121234 C36.6458027,22.6689 35.7506696,21.835966 34.3329586,20.8177494 C32.901675,19.7897847 31.3408952,19.2701822 29.1880075,18.9640238 L29.426,19 Z M33.6927121,8.61216267 C32.8348081,9.06475585 31.9756695,9.97325859 30.9861955,11.3567687 L30.8271611,11.5864261 C29.9517198,12.8932749 29.5088238,14.3027882 29.2302092,16.3196987 L29.1915891,16.6262337 L29.2525301,16.618199 C31.4165081,16.3236609 32.9832943,15.8107938 34.4157449,14.7863181 C35.8346266,13.7715467 36.7290257,12.9400453 37.1866878,12.0963229 C37.7005856,11.1489273 37.5721763,10.3014466 36.5458532,9.27237512 C35.5170133,8.24079578 34.6545537,8.10473647 33.6927121,8.61216267 Z M22.2140689,8.64203746 C21.2550801,8.13183162 20.404276,8.26089415 19.3940613,9.27383239 C18.386337,10.284289 18.2647425,11.120309 18.7813484,12.0650877 C19.2424239,12.9083111 20.137557,13.741245 21.555268,14.7594617 C22.9865516,15.7874264 24.5473314,16.3070289 26.7002192,16.6131873 L26.7002192,16.6131873 L26.7404664,16.6185794 L26.6920604,16.2680841 C26.4031293,14.3028311 25.956051,12.9179721 25.0917943,11.6303443 L25.0917943,11.6303443 L24.9247941,11.3899356 C23.9319267,10.0075195 23.071366,9.09814074 22.2140689,8.64203746 Z" id="Combined-Shape"></path>
                    </g>
                </g>
            </g>
        </g>
    </g>
</svg>