<svg width="144" height="178" xmlns="http://www.w3.org/2000/svg"><path d="M31.82 13.275c23.987-2.099 37.224 11.055 39.71 39.46 1.806 20.656-11.486 61.128-39.877 121.416l-.865 1.833-21.59 1.889L41.38 78.93l-.754.063C15.859 80.946 2.55 71.347.7 50.193c-.572-6.536.5-12.455 3.217-17.759 2.716-5.304 6.468-9.685 11.254-13.143s10.335-5.464 16.648-6.016zm72.804-10.07c4.043-2.06 8.489-2.92 13.338-2.58 18.427 1.288 26.873 12.907 25.339 34.855-1.116 15.96-16.057 45.204-44.821 87.734l-.876 1.292-16.584-1.16 36.286-71.533-.579-.042c-19-1.493-27.928-10.412-26.785-26.756.353-5.05 1.878-9.433 4.574-13.148 2.697-3.715 6.066-6.602 10.108-8.662z" fill="#FFCDC3"/></svg>