<svg width="96" height="47" xmlns="http://www.w3.org/2000/svg"><g fill="none" fill-rule="evenodd"><rect fill="#4740E3" x="33" y="9" width="63" height="38" rx="2.817"/><rect fill="#00E0B4" width="63" height="39" rx="2.817"/><path d="M35.817 9H63v27.183A2.817 2.817 0 0160.183 39H33V11.817A2.817 2.817 0 0135.817 9z" fill="#00B8C0"/><path d="M43.808 17a7.83 7.83 0 012.614.431c.347.124.646.25.898.379.253.13.444.24.573.335.364.281.416.622.158 1.02l-.317.494c-.129.2-.276.314-.44.343-.164.03-.358-.02-.581-.15a6.953 6.953 0 00-1.092-.51c-.458-.176-1.021-.264-1.69-.264-.681 0-1.286.114-1.814.343-.528.23-.971.54-1.33.933a4.037 4.037 0 00-.818 1.383 4.956 4.956 0 00-.282 1.673c0 .657.109 1.259.326 1.804a4.23 4.23 0 00.89 1.4 4.048 4.048 0 002.957 1.233c.529 0 .99-.07 1.383-.211s.725-.3.995-.476c.305-.2.569-.428.792-.687V24.73h-2.093c-.493 0-.74-.246-.74-.74v-.475c0-.493.247-.74.74-.74h3.396c.481 0 .722.247.722.74v1.215c0 .778-.065 1.99-.135 2.265-.217.852-1.115 1.596-1.6 1.88-.485.283-.948.548-1.506.702-.558.153-1.725.348-2.323.348a6.06 6.06 0 01-4.314-1.778 6.217 6.217 0 01-1.339-2.026c-.329-.786-.493-1.655-.493-2.606 0-.927.162-1.79.484-2.588a6.218 6.218 0 011.347-2.07 6.207 6.207 0 012.043-1.364c.787-.329 1.65-.493 2.589-.493zm-15.6.211c.482 0 .723.247.723.74v11.023c0 .493-.241.74-.722.74h-.81c-.482 0-.722-.247-.722-.74V17.95c0-.493.24-.74.722-.74h.81zm29.543 0c.481 0 .722.247.722.74v11.023c0 .493-.24.74-.722.74h-.81c-.481 0-.722-.247-.722-.74V17.95c0-.493.24-.74.722-.74h.81zm16.321 0c.493 0 .74.247.74.74v.493c0 .481-.247.722-.74.722h-4.19v3.54h3.415c.493 0 .74.24.74.721v.493c0 .493-.247.74-.74.74h-3.416v4.314c0 .493-.24.74-.722.74h-.81c-.481 0-.722-.247-.722-.74V17.95c0-.493.24-.74.722-.74h5.723zm15.81 0c.482 0 .722.247.722.74v.493c0 .481-.24.722-.722.722H86.52v9.808c0 .493-.247.74-.74.74h-.792c-.481 0-.722-.247-.722-.74v-9.808h-3.363c-.493 0-.74-.24-.74-.722v-.493c0-.493.247-.74.74-.74h8.98zm-76.62 0c.962 0 1.836.141 2.623.423a5.58 5.58 0 012.007 1.215c.552.528.98 1.18 1.286 1.954.305.775.458 1.656.458 2.642s-.153 1.866-.458 2.641a5.58 5.58 0 01-1.286 1.972c-.551.54-1.22.951-2.007 1.233-.787.282-1.661.422-2.624.422H9.722c-.481 0-.722-.246-.722-.74V17.952c0-.493.24-.74.722-.74h3.54zm-.124 1.955h-1.884v8.593h1.884c1.268 0 2.277-.367 3.029-1.1.751-.734 1.127-1.806 1.127-3.214 0-.693-.1-1.306-.3-1.84-.2-.534-.481-.98-.845-1.339a3.63 3.63 0 00-1.312-.818 4.891 4.891 0 00-1.699-.282z" fill="#FFF"/></g></svg>