<svg width="107" height="53" xmlns="http://www.w3.org/2000/svg"><g fill="none" fill-rule="evenodd"><rect fill="#4740E3" x="37" y="10" width="70" height="43" rx="3.13"/><rect fill="#00E0B4" width="70" height="43" rx="3.13"/><path d="M40.13 10H70v29.87A3.13 3.13 0 0166.87 43H37V13.13A3.13 3.13 0 0140.13 10z" fill="#00B8C0"/><path d="M48.675 19a8.7 8.7 0 012.905.48c.385.136.718.277.998.42.28.143.493.267.636.372.405.313.463.691.176 1.135l-.352.547c-.143.222-.306.35-.49.382-.182.032-.397-.023-.645-.166a7.726 7.726 0 00-1.213-.568c-.508-.195-1.135-.293-1.878-.293-.757 0-1.428.127-2.015.381-.587.255-1.08.6-1.477 1.037a4.485 4.485 0 00-.91 1.536 5.507 5.507 0 00-.313 1.859c0 .73.12 1.399.362 2.005a4.7 4.7 0 00.988 1.556c.417.43.906.766 1.467 1.007a4.546 4.546 0 001.82.362c.587 0 1.099-.078 1.536-.235a5.298 5.298 0 001.105-.528c.34-.222.633-.476.88-.763V27.59H49.93c-.548 0-.821-.274-.821-.822v-.528c0-.548.273-.822.821-.822h3.773c.535 0 .802.274.802.822v1.35c0 .864-.071 2.211-.15 2.516-.24.947-1.238 1.774-1.777 2.089-.539.315-1.054.61-1.674.78-.62.17-1.916.387-2.581.387a6.734 6.734 0 01-4.793-1.976 6.908 6.908 0 01-1.488-2.25c-.365-.874-.547-1.84-.547-2.896 0-1.03.179-1.989.538-2.876a6.908 6.908 0 011.496-2.299 6.897 6.897 0 012.27-1.516c.874-.365 1.833-.548 2.876-.548zm-17.332.235c.535 0 .802.274.802.822v12.247c0 .548-.267.822-.802.822h-.9c-.535 0-.802-.274-.802-.822V20.057c0-.548.267-.822.802-.822h.9zm32.825 0c.535 0 .802.274.802.822v12.247c0 .548-.267.822-.802.822h-.9c-.535 0-.802-.274-.802-.822V20.057c0-.548.267-.822.802-.822h.9zm18.134 0c.548 0 .822.274.822.822v.547c0 .535-.274.803-.822.803h-4.656v3.932h3.795c.548 0 .822.268.822.802v.548c0 .548-.274.822-.822.822h-3.795v4.793c0 .548-.268.822-.802.822h-.9c-.535 0-.803-.274-.803-.822V20.057c0-.548.268-.822.803-.822h6.358zm17.567 0c.535 0 .802.274.802.822v.547c0 .535-.267.803-.802.803h-3.737v10.897c0 .548-.274.822-.822.822h-.88c-.535 0-.802-.274-.802-.822V21.407H89.89c-.548 0-.822-.268-.822-.803v-.547c0-.548.274-.822.822-.822h9.978zm-85.134 0c1.07 0 2.041.156 2.915.47.874.312 1.617.762 2.23 1.35.613.586 1.09 1.31 1.429 2.171.339.861.508 1.84.508 2.935 0 1.096-.17 2.074-.508 2.935a6.2 6.2 0 01-1.429 2.191c-.613.6-1.356 1.056-2.23 1.37-.874.313-1.846.47-2.915.47h-3.933c-.535 0-.802-.275-.802-.823V20.057c0-.548.267-.822.802-.822h3.933zm-.137 2.172h-2.094v9.547h2.094c1.409 0 2.53-.407 3.365-1.222.835-.816 1.252-2.006 1.252-3.571 0-.77-.11-1.451-.332-2.045a4.028 4.028 0 00-.94-1.487 4.033 4.033 0 00-1.457-.91 5.435 5.435 0 00-1.888-.312z" fill="#FFF"/></g></svg>